<svg width="382" height="325" viewBox="0 0 382 325" fill="none" xmlns="http://www.w3.org/2000/svg">
<path d="M207.248 90.3704L206.602 89.7249L205.901 90.3091C198.346 96.6005 188.657 99.7374 178.848 99.0671C169.04 98.3968 159.867 93.9709 153.239 86.7102C146.61 79.4495 143.036 69.9129 143.26 60.0842C143.483 50.2554 147.488 40.8912 154.439 33.9394C161.391 26.9876 170.755 22.9835 180.584 22.7599C190.413 22.5363 199.95 26.1105 207.21 32.7389C214.471 39.3674 218.897 48.5399 219.567 58.3483C220.237 68.1567 217.101 77.846 210.809 85.4006L210.225 86.1021L210.87 86.7476L237.909 113.786L237.921 113.798L237.934 113.81C238.186 114.045 238.388 114.328 238.528 114.643C238.668 114.957 238.744 115.297 238.75 115.641C238.756 115.985 238.692 116.327 238.563 116.646C238.434 116.966 238.243 117.256 237.999 117.499C237.756 117.743 237.466 117.934 237.146 118.063C236.827 118.192 236.485 118.256 236.141 118.25C235.797 118.244 235.457 118.168 235.143 118.028C234.828 117.888 234.545 117.686 234.31 117.434L234.298 117.421L234.286 117.409L207.248 90.3704ZM148.375 60.9504V60.9506C148.375 67.362 150.238 73.6353 153.738 79.0072C157.238 84.3791 162.224 88.618 168.089 91.2081C173.954 93.7982 180.445 94.6278 186.773 93.5961C193.08 92.5679 198.953 89.735 203.683 85.4406C204.037 85.1934 204.256 85.0384 204.427 84.9019C204.617 84.7498 204.747 84.6208 204.914 84.4534L204.933 84.4347C205.173 84.1954 205.386 83.9142 205.545 83.6992C205.584 83.6464 205.62 83.5988 205.651 83.5556C205.771 83.3931 205.843 83.295 205.902 83.2308C209.521 79.2582 212.117 74.4636 213.466 69.262C214.816 64.0603 214.877 58.6082 213.646 53.3775C212.414 48.1467 209.927 43.2947 206.398 39.2414C202.87 35.1881 198.407 32.0555 193.396 30.1147C188.385 28.1739 182.977 27.4832 177.639 28.1026C172.301 28.7219 167.194 30.6326 162.76 33.6692C158.327 36.7059 154.7 40.7771 152.193 45.5305C149.687 50.284 148.377 55.5766 148.375 60.9504Z" fill="#768D98" stroke="white" stroke-width="2"/>
<path fill-rule="evenodd" clip-rule="evenodd" d="M174.623 38.5244C174.94 38.5254 175.25 38.6221 175.513 38.8023C175.777 38.9824 175.982 39.238 176.102 39.5367L189.592 72.9273L195.071 59.1805C195.191 58.8788 195.397 58.6204 195.662 58.4385C195.927 58.2566 196.239 58.1595 196.559 58.1595H205.121C205.546 58.1595 205.955 58.3319 206.256 58.6388C206.557 58.9456 206.726 59.3618 206.726 59.7958C206.726 60.2297 206.557 60.6459 206.256 60.9528C205.955 61.2596 205.546 61.432 205.121 61.432H197.64L191.09 77.8644C190.97 78.1659 190.765 78.4242 190.501 78.6064C190.237 78.7886 189.925 78.8864 189.606 78.8873C189.287 78.8882 188.975 78.7923 188.71 78.6116C188.445 78.431 188.238 78.1739 188.117 77.8731L174.613 44.4368L168.076 60.4263C167.954 60.7245 167.747 60.9791 167.483 61.1581C167.22 61.3371 166.909 61.4324 166.592 61.432H156.96C156.535 61.432 156.126 61.2596 155.825 60.9528C155.524 60.6459 155.355 60.2297 155.355 59.7958C155.355 59.3618 155.524 58.9456 155.825 58.6388C156.126 58.3319 156.535 58.1595 156.96 58.1595H165.522L173.138 39.5324C173.26 39.2334 173.466 38.978 173.731 38.7986C173.995 38.6192 174.306 38.5238 174.623 38.5244Z" fill="#AABDC6"/>
<path d="M52.7805 176.978C52.7805 171.986 45.2685 172.274 45.2685 169.058C45.2685 167.594 45.9405 166.586 48.3885 166.586C49.3965 166.586 50.7165 166.754 51.7005 167.018C51.8685 166.466 52.0125 165.626 52.0125 165.194C51.0525 164.954 49.6605 164.834 48.6285 164.834C45.4605 164.834 43.2285 166.394 43.2285 169.25C43.2285 173.882 50.7645 173.474 50.7645 177.146C50.7645 178.826 49.7085 179.738 47.7165 179.738C46.3485 179.738 45.0045 179.522 43.6845 178.946C43.5165 179.426 43.3005 180.17 43.2285 180.746C44.5005 181.298 46.2045 181.49 47.5245 181.49C50.8365 181.49 52.7805 179.666 52.7805 176.978ZM65.1778 173.45C65.1778 170.258 63.5938 168.482 60.6418 168.482C57.7858 168.482 55.6018 170.474 55.6018 175.154C55.6018 179.426 57.5458 181.49 61.2178 181.49C62.5378 181.49 64.0258 181.202 64.9378 180.65C64.8418 180.098 64.6498 179.402 64.4578 178.898C63.7138 179.354 62.4418 179.714 61.2898 179.714C58.5298 179.714 57.6418 178.346 57.6418 175.466V175.346H65.1058C65.1538 174.77 65.1778 173.978 65.1778 173.45ZM60.5938 170.018C62.2978 170.018 63.3058 170.906 63.3058 173.114C63.3058 173.282 63.3058 173.69 63.2818 173.882H57.6658C57.7378 171.098 58.8418 170.018 60.5938 170.018ZM78.7975 179.618H77.4775C76.9255 179.618 76.7575 179.402 76.7575 178.826V169.658C75.7255 168.842 73.9255 168.482 72.3175 168.482C71.0935 168.482 70.1335 168.65 69.0775 168.962C69.0775 169.514 69.1735 170.234 69.3175 170.69C70.0135 170.378 71.2135 170.162 72.2695 170.162C73.2535 170.162 74.3575 170.402 74.9575 170.738V174.218L72.3175 174.338C69.3655 174.458 67.8535 175.49 67.8535 178.106C67.8535 180.41 69.3415 181.49 71.4775 181.49C72.7255 181.49 73.8535 181.154 75.0295 180.194H75.1255C75.5335 181.178 76.3735 181.49 77.3335 181.49C78.2695 181.49 78.7975 181.106 78.7975 180.17V179.618ZM74.9575 178.874C74.1415 179.474 72.8935 179.906 71.8135 179.906C70.3975 179.906 69.8215 179.354 69.8215 177.986C69.8215 176.426 70.3975 175.826 72.2455 175.754L74.9575 175.634V178.874ZM87.8035 168.602C87.5155 168.506 87.0835 168.482 86.8195 168.482C86.0275 168.482 85.1635 168.626 83.7475 170.258H83.6515V168.674C83.0995 168.674 82.2595 168.722 81.7795 168.818V181.25H83.6515V171.794C84.8035 170.57 85.6675 170.426 86.5315 170.426C86.9635 170.426 87.3475 170.474 87.6115 170.546C87.7075 169.946 87.8035 169.202 87.8035 168.602ZM98.7687 180.746C98.6967 180.17 98.5287 179.522 98.3367 179.018C97.5927 179.474 96.4887 179.714 95.5287 179.714C93.1287 179.714 92.0007 178.658 92.0007 174.77C92.0007 171.362 93.2727 170.258 95.3127 170.258C96.2247 170.258 97.1847 170.402 98.0727 170.786C98.2407 170.234 98.3847 169.538 98.4567 169.01C97.5687 168.65 96.1767 168.482 95.2167 168.482C92.3607 168.482 89.9847 170.378 89.9847 175.202C89.9847 179.354 91.8567 181.49 95.5047 181.49C96.4167 181.49 97.9047 181.25 98.7687 180.746ZM111.575 181.25V172.25C111.575 169.442 110.015 168.482 108.047 168.482C106.631 168.482 105.479 168.866 104.255 169.898H104.159V163.394C103.607 163.394 102.767 163.466 102.287 163.562V181.25H104.159V171.266C105.215 170.546 106.247 170.186 107.519 170.186C109.103 170.186 109.727 171.002 109.727 172.298V181.25H111.575ZM123.265 165.194C123.265 164.546 122.881 163.994 122.137 163.994C121.393 163.994 121.009 164.546 121.009 165.194C121.009 165.842 121.393 166.37 122.113 166.37C122.881 166.37 123.265 165.866 123.265 165.194ZM123.073 181.25V168.722H121.201V181.25H123.073ZM137.192 181.25V172.25C137.192 169.37 135.56 168.482 133.664 168.482C132.296 168.482 131.096 168.842 129.872 169.898H129.776V168.674C129.224 168.674 128.384 168.722 127.904 168.818V181.25H129.776V171.266C130.808 170.546 131.816 170.186 133.136 170.186C134.744 170.186 135.344 171.026 135.344 172.298V181.25H137.192ZM152.939 181.034C152.915 180.482 152.795 179.834 152.651 179.354C152.171 179.594 151.403 179.738 150.827 179.738C149.579 179.738 149.123 179.282 149.123 177.698V170.33H152.147C152.219 169.826 152.267 169.226 152.267 168.722H149.123V165.674C148.595 165.698 147.731 165.842 147.275 165.986V168.722H145.739V170.33H147.275V177.554C147.275 180.218 148.211 181.49 150.707 181.49C151.379 181.49 152.315 181.322 152.939 181.034ZM165.317 181.25V172.25C165.317 169.442 163.757 168.482 161.789 168.482C160.373 168.482 159.221 168.866 157.997 169.898H157.901V163.394C157.349 163.394 156.509 163.466 156.029 163.562V181.25H157.901V171.266C158.957 170.546 159.989 170.186 161.261 170.186C162.845 170.186 163.469 171.002 163.469 172.298V181.25H165.317ZM178.709 173.45C178.709 170.258 177.125 168.482 174.173 168.482C171.317 168.482 169.133 170.474 169.133 175.154C169.133 179.426 171.077 181.49 174.749 181.49C176.069 181.49 177.557 181.202 178.469 180.65C178.373 180.098 178.181 179.402 177.989 178.898C177.245 179.354 175.973 179.714 174.821 179.714C172.061 179.714 171.173 178.346 171.173 175.466V175.346H178.637C178.685 174.77 178.709 173.978 178.709 173.45ZM174.125 170.018C175.829 170.018 176.837 170.906 176.837 173.114C176.837 173.282 176.837 173.69 176.813 173.882H171.197C171.269 171.098 172.373 170.018 174.125 170.018ZM197.131 181.25V168.722H189.907V166.994C189.907 165.698 190.339 165.122 191.467 165.122C191.827 165.122 192.331 165.146 192.595 165.194C192.691 164.642 192.739 163.994 192.739 163.49C192.427 163.442 191.947 163.394 191.587 163.394C189.763 163.394 188.035 164.714 188.035 167.162V168.722H186.499V170.33H188.035V181.25H189.907V170.33H195.259V181.25H197.131ZM197.323 165.194C197.323 164.546 196.939 163.994 196.219 163.994C195.451 163.994 195.067 164.546 195.067 165.194C195.067 165.842 195.451 166.37 196.195 166.37C196.939 166.37 197.323 165.866 197.323 165.194ZM210.608 173.45C210.608 170.258 209.024 168.482 206.072 168.482C203.216 168.482 201.032 170.474 201.032 175.154C201.032 179.426 202.976 181.49 206.648 181.49C207.968 181.49 209.456 181.202 210.368 180.65C210.272 180.098 210.08 179.402 209.888 178.898C209.144 179.354 207.872 179.714 206.72 179.714C203.96 179.714 203.072 178.346 203.072 175.466V175.346H210.536C210.584 174.77 210.608 173.978 210.608 173.45ZM206.024 170.018C207.728 170.018 208.736 170.906 208.736 173.114C208.736 173.282 208.736 173.69 208.712 173.882H203.096C203.168 171.098 204.272 170.018 206.024 170.018ZM216.331 181.25V163.394C215.779 163.394 214.939 163.466 214.459 163.562V181.25H216.331ZM228.266 178.85C227.21 179.546 226.25 179.81 225.218 179.81C223.298 179.81 222.29 178.826 222.29 175.13C222.29 171.242 223.586 170.162 225.818 170.162C226.586 170.162 227.594 170.33 228.266 170.69V178.85ZM230.138 181.25V163.394C229.61 163.394 228.746 163.466 228.266 163.562V168.938C227.522 168.65 226.586 168.482 225.794 168.482C222.434 168.482 220.274 170.426 220.274 175.37C220.274 179.714 222.05 181.49 224.666 181.49C226.01 181.49 227.066 181.154 228.17 180.194H228.266V181.25H230.138ZM249.753 174.578C249.753 170.114 247.857 168.482 245.313 168.482C243.993 168.482 243.009 168.818 241.857 169.802H241.761V163.394C241.209 163.394 240.369 163.466 239.889 163.562V180.194C241.161 181.106 242.529 181.49 244.161 181.49C247.689 181.49 249.753 179.282 249.753 174.578ZM247.737 174.794C247.737 178.682 246.441 179.834 244.113 179.834C243.273 179.834 242.409 179.666 241.761 179.21V171.266C242.697 170.546 243.729 170.162 244.833 170.162C246.681 170.162 247.737 171.146 247.737 174.794ZM262.814 168.818C262.31 168.698 261.47 168.65 260.99 168.65L257.966 177.842C257.798 178.322 257.654 178.85 257.558 179.354H257.462C257.39 178.85 257.222 178.322 257.078 177.866L254.078 168.65C253.55 168.65 252.758 168.722 252.254 168.818C253.358 172.898 255.062 177.65 256.574 181.25L255.854 182.93C255.35 184.106 254.678 184.634 253.694 184.634C253.046 184.634 252.326 184.49 251.846 184.25C251.654 184.706 251.51 185.378 251.438 185.978C252.158 186.362 252.998 186.434 253.574 186.434C255.782 186.434 257.27 184.826 258.59 181.034L262.814 168.818ZM280.594 179.618H279.274C278.722 179.618 278.554 179.402 278.554 178.826V169.658C277.522 168.842 275.722 168.482 274.114 168.482C272.89 168.482 271.93 168.65 270.874 168.962C270.874 169.514 270.97 170.234 271.114 170.69C271.81 170.378 273.01 170.162 274.066 170.162C275.05 170.162 276.154 170.402 276.754 170.738V174.218L274.114 174.338C271.162 174.458 269.65 175.49 269.65 178.106C269.65 180.41 271.138 181.49 273.274 181.49C274.522 181.49 275.65 181.154 276.826 180.194H276.922C277.33 181.178 278.17 181.49 279.13 181.49C280.066 181.49 280.594 181.106 280.594 180.17V179.618ZM276.754 178.874C275.938 179.474 274.69 179.906 273.61 179.906C272.194 179.906 271.618 179.354 271.618 177.986C271.618 176.426 272.194 175.826 274.042 175.754L276.754 175.634V178.874ZM290.56 177.866C290.56 173.762 284.632 174.314 284.632 172.01C284.632 170.762 285.376 170.138 286.792 170.138C287.8 170.138 288.976 170.282 289.84 170.594C289.984 170.066 290.128 169.346 290.128 168.842C289.192 168.578 288.016 168.482 287.248 168.482C284.728 168.482 282.712 169.778 282.712 172.226C282.712 175.994 288.616 175.274 288.616 177.986C288.616 179.138 287.992 179.786 286.432 179.786C285.256 179.786 283.96 179.546 282.976 179.042C282.76 179.57 282.616 180.146 282.472 180.722C283.456 181.25 284.848 181.49 286.048 181.49C288.472 181.49 290.56 180.314 290.56 177.866ZM301.342 177.866C301.342 173.762 295.414 174.314 295.414 172.01C295.414 170.762 296.158 170.138 297.574 170.138C298.582 170.138 299.758 170.282 300.622 170.594C300.766 170.066 300.91 169.346 300.91 168.842C299.974 168.578 298.798 168.482 298.03 168.482C295.51 168.482 293.494 169.778 293.494 172.226C293.494 175.994 299.398 175.274 299.398 177.986C299.398 179.138 298.774 179.786 297.214 179.786C296.038 179.786 294.742 179.546 293.758 179.042C293.542 179.57 293.398 180.146 293.254 180.722C294.238 181.25 295.63 181.49 296.83 181.49C299.254 181.49 301.342 180.314 301.342 177.866ZM313.803 173.45C313.803 170.258 312.219 168.482 309.267 168.482C306.411 168.482 304.227 170.474 304.227 175.154C304.227 179.426 306.171 181.49 309.843 181.49C311.163 181.49 312.651 181.202 313.563 180.65C313.467 180.098 313.275 179.402 313.083 178.898C312.339 179.354 311.067 179.714 309.915 179.714C307.155 179.714 306.267 178.346 306.267 175.466V175.346H313.731C313.779 174.77 313.803 173.978 313.803 173.45ZM309.219 170.018C310.923 170.018 311.931 170.906 311.931 173.114C311.931 173.282 311.931 173.69 311.907 173.882H306.291C306.363 171.098 307.467 170.018 309.219 170.018ZM323.774 181.034C323.75 180.482 323.63 179.834 323.486 179.354C323.006 179.594 322.238 179.738 321.662 179.738C320.414 179.738 319.958 179.282 319.958 177.698V170.33H322.982C323.054 169.826 323.102 169.226 323.102 168.722H319.958V165.674C319.43 165.698 318.566 165.842 318.11 165.986V168.722H316.574V170.33H318.11V177.554C318.11 180.218 319.046 181.49 321.542 181.49C322.214 181.49 323.15 181.322 323.774 181.034ZM333.849 177.866C333.849 173.762 327.921 174.314 327.921 172.01C327.921 170.762 328.665 170.138 330.081 170.138C331.089 170.138 332.265 170.282 333.129 170.594C333.273 170.066 333.417 169.346 333.417 168.842C332.481 168.578 331.305 168.482 330.537 168.482C328.017 168.482 326.001 169.778 326.001 172.226C326.001 175.994 331.905 175.274 331.905 177.986C331.905 179.138 331.281 179.786 329.721 179.786C328.545 179.786 327.249 179.546 326.265 179.042C326.049 179.57 325.905 180.146 325.761 180.722C326.745 181.25 328.137 181.49 329.337 181.49C331.761 181.49 333.849 180.314 333.849 177.866ZM338.895 179.834C338.895 179.522 338.871 178.85 338.799 178.538H337.191V179.378C337.191 181.394 336.687 182.402 334.671 184.778L336.087 185.402C337.791 183.53 338.895 181.706 338.895 179.834ZM26.4708 202.45C26.4708 199.258 24.8868 197.482 21.9348 197.482C19.0788 197.482 16.8948 199.474 16.8948 204.154C16.8948 208.426 18.8388 210.49 22.5108 210.49C23.8308 210.49 25.3188 210.202 26.2308 209.65C26.1348 209.098 25.9428 208.402 25.7508 207.898C25.0068 208.354 23.7348 208.714 22.5828 208.714C19.8228 208.714 18.9348 207.346 18.9348 204.466V204.346H26.3988C26.4468 203.77 26.4708 202.978 26.4708 202.45ZM21.8868 199.018C23.5908 199.018 24.5988 199.906 24.5988 202.114C24.5988 202.282 24.5988 202.69 24.5748 202.882H18.9588C19.0308 200.098 20.1348 199.018 21.8868 199.018ZM39.6104 210.25V201.25C39.6104 198.37 37.9784 197.482 36.0824 197.482C34.7144 197.482 33.5144 197.842 32.2904 198.898H32.1944V197.674C31.6424 197.674 30.8024 197.722 30.3224 197.818V210.25H32.1944V200.266C33.2264 199.546 34.2344 199.186 35.5544 199.186C37.1624 199.186 37.7624 200.026 37.7624 201.298V210.25H39.6104ZM50.4581 210.034C50.4341 209.482 50.3141 208.834 50.1701 208.354C49.6901 208.594 48.9221 208.738 48.3461 208.738C47.0981 208.738 46.6421 208.282 46.6421 206.698V199.33H49.6661C49.7381 198.826 49.7861 198.226 49.7861 197.722H46.6421V194.674C46.1141 194.698 45.2501 194.842 44.7941 194.986V197.722H43.2581V199.33H44.7941V206.554C44.7941 209.218 45.7301 210.49 48.2261 210.49C48.8981 210.49 49.8341 210.322 50.4581 210.034ZM55.613 194.194C55.613 193.546 55.229 192.994 54.485 192.994C53.741 192.994 53.357 193.546 53.357 194.194C53.357 194.842 53.741 195.37 54.461 195.37C55.229 195.37 55.613 194.866 55.613 194.194ZM55.421 210.25V197.722H53.549V210.25H55.421ZM66.3721 210.034C66.3481 209.482 66.2281 208.834 66.0841 208.354C65.6041 208.594 64.8361 208.738 64.2601 208.738C63.0121 208.738 62.5561 208.282 62.5561 206.698V199.33H65.5801C65.6521 198.826 65.7001 198.226 65.7001 197.722H62.5561V194.674C62.0281 194.698 61.1641 194.842 60.7081 194.986V197.722H59.1721V199.33H60.7081V206.554C60.7081 209.218 61.6441 210.49 64.1401 210.49C64.8121 210.49 65.7481 210.322 66.3721 210.034ZM71.5271 194.194C71.5271 193.546 71.1431 192.994 70.3991 192.994C69.6551 192.994 69.2711 193.546 69.2711 194.194C69.2711 194.842 69.6551 195.37 70.3751 195.37C71.1431 195.37 71.5271 194.866 71.5271 194.194ZM71.3351 210.25V197.722H69.4631V210.25H71.3351ZM84.8302 202.45C84.8302 199.258 83.2462 197.482 80.2942 197.482C77.4382 197.482 75.2542 199.474 75.2542 204.154C75.2542 208.426 77.1982 210.49 80.8702 210.49C82.1902 210.49 83.6782 210.202 84.5902 209.65C84.4942 209.098 84.3022 208.402 84.1102 207.898C83.3662 208.354 82.0942 208.714 80.9422 208.714C78.1822 208.714 77.2942 207.346 77.2942 204.466V204.346H84.7582C84.8062 203.77 84.8302 202.978 84.8302 202.45ZM80.2462 199.018C81.9502 199.018 82.9582 199.906 82.9582 202.114C82.9582 202.282 82.9582 202.69 82.9342 202.882H77.3182C77.3902 200.098 78.4942 199.018 80.2462 199.018ZM95.6658 206.866C95.6658 202.762 89.7378 203.314 89.7378 201.01C89.7378 199.762 90.4818 199.138 91.8978 199.138C92.9058 199.138 94.0818 199.282 94.9458 199.594C95.0898 199.066 95.2338 198.346 95.2338 197.842C94.2978 197.578 93.1218 197.482 92.3538 197.482C89.8338 197.482 87.8178 198.778 87.8178 201.226C87.8178 204.994 93.7218 204.274 93.7218 206.986C93.7218 208.138 93.0978 208.786 91.5378 208.786C90.3618 208.786 89.0658 208.546 88.0818 208.042C87.8658 208.57 87.7218 209.146 87.5778 209.722C88.5618 210.25 89.9538 210.49 91.1538 210.49C93.5778 210.49 95.6658 209.314 95.6658 206.866ZM100.711 208.834C100.711 208.522 100.687 207.85 100.615 207.538H99.0071V208.378C99.0071 210.394 98.5031 211.402 96.4871 213.778L97.9031 214.402C99.6071 212.53 100.711 210.706 100.711 208.834ZM117.366 209.746C117.294 209.17 117.126 208.522 116.934 208.018C116.19 208.474 115.086 208.714 114.126 208.714C111.726 208.714 110.598 207.658 110.598 203.77C110.598 200.362 111.87 199.258 113.91 199.258C114.822 199.258 115.782 199.402 116.67 199.786C116.838 199.234 116.982 198.538 117.054 198.01C116.166 197.65 114.774 197.482 113.814 197.482C110.958 197.482 108.582 199.378 108.582 204.202C108.582 208.354 110.454 210.49 114.102 210.49C115.014 210.49 116.502 210.25 117.366 209.746ZM130.581 203.986C130.581 199.378 128.493 197.482 125.325 197.482C122.181 197.482 119.973 199.81 119.973 203.986C119.973 208.594 122.061 210.49 125.205 210.49C128.253 210.49 130.581 208.402 130.581 203.986ZM128.565 203.986C128.565 207.826 127.149 208.858 125.253 208.858C123.189 208.858 121.989 207.706 121.989 203.986C121.989 200.146 123.405 199.114 125.301 199.114C127.365 199.114 128.565 200.266 128.565 203.986ZM143.814 210.25V201.25C143.814 198.37 142.182 197.482 140.286 197.482C138.918 197.482 137.718 197.842 136.494 198.898H136.398V197.674C135.846 197.674 135.006 197.722 134.526 197.818V210.25H136.398V200.266C137.43 199.546 138.438 199.186 139.758 199.186C141.366 199.186 141.966 200.026 141.966 201.298V210.25H143.814ZM154.661 210.034C154.637 209.482 154.517 208.834 154.373 208.354C153.893 208.594 153.125 208.738 152.549 208.738C151.301 208.738 150.845 208.282 150.845 206.698V199.33H153.869C153.941 198.826 153.989 198.226 153.989 197.722H150.845V194.674C150.317 194.698 149.453 194.842 148.997 194.986V197.722H147.461V199.33H148.997V206.554C148.997 209.218 149.933 210.49 152.429 210.49C153.101 210.49 154.037 210.322 154.661 210.034ZM163.776 197.602C163.488 197.506 163.056 197.482 162.792 197.482C162 197.482 161.136 197.626 159.72 199.258H159.624V197.674C159.072 197.674 158.232 197.722 157.752 197.818V210.25H159.624V200.794C160.776 199.57 161.64 199.426 162.504 199.426C162.936 199.426 163.32 199.474 163.584 199.546C163.68 198.946 163.776 198.202 163.776 197.602ZM176.286 208.618H174.966C174.414 208.618 174.246 208.402 174.246 207.826V198.658C173.214 197.842 171.414 197.482 169.806 197.482C168.582 197.482 167.622 197.65 166.566 197.962C166.566 198.514 166.662 199.234 166.806 199.69C167.502 199.378 168.702 199.162 169.758 199.162C170.742 199.162 171.846 199.402 172.446 199.738V203.218L169.806 203.338C166.854 203.458 165.342 204.49 165.342 207.106C165.342 209.41 166.83 210.49 168.966 210.49C170.214 210.49 171.342 210.154 172.518 209.194H172.614C173.022 210.178 173.862 210.49 174.822 210.49C175.758 210.49 176.286 210.106 176.286 209.17V208.618ZM172.446 207.874C171.63 208.474 170.382 208.906 169.302 208.906C167.886 208.906 167.31 208.354 167.31 206.986C167.31 205.426 167.886 204.826 169.734 204.754L172.446 204.634V207.874ZM187.14 209.746C187.068 209.17 186.9 208.522 186.708 208.018C185.964 208.474 184.86 208.714 183.9 208.714C181.5 208.714 180.372 207.658 180.372 203.77C180.372 200.362 181.644 199.258 183.684 199.258C184.596 199.258 185.556 199.402 186.444 199.786C186.612 199.234 186.756 198.538 186.828 198.01C185.94 197.65 184.548 197.482 183.588 197.482C180.732 197.482 178.356 199.378 178.356 204.202C178.356 208.354 180.228 210.49 183.876 210.49C184.788 210.49 186.276 210.25 187.14 209.746ZM196.778 210.034C196.754 209.482 196.634 208.834 196.49 208.354C196.01 208.594 195.242 208.738 194.666 208.738C193.418 208.738 192.962 208.282 192.962 206.698V199.33H195.986C196.058 198.826 196.106 198.226 196.106 197.722H192.962V194.674C192.434 194.698 191.57 194.842 191.114 194.986V197.722H189.578V199.33H191.114V206.554C191.114 209.218 192.05 210.49 194.546 210.49C195.218 210.49 196.154 210.322 196.778 210.034ZM206.853 206.866C206.853 202.762 200.925 203.314 200.925 201.01C200.925 199.762 201.669 199.138 203.085 199.138C204.093 199.138 205.269 199.282 206.133 199.594C206.277 199.066 206.421 198.346 206.421 197.842C205.485 197.578 204.309 197.482 203.541 197.482C201.021 197.482 199.005 198.778 199.005 201.226C199.005 204.994 204.909 204.274 204.909 206.986C204.909 208.138 204.285 208.786 202.725 208.786C201.549 208.786 200.253 208.546 199.269 208.042C199.053 208.57 198.909 209.146 198.765 209.722C199.749 210.25 201.141 210.49 202.341 210.49C204.765 210.49 206.853 209.314 206.853 206.866ZM211.899 208.834C211.899 208.522 211.875 207.85 211.803 207.538H210.195V208.378C210.195 210.394 209.691 211.402 207.675 213.778L209.091 214.402C210.795 212.53 211.899 210.706 211.899 208.834ZM230.546 203.602C230.546 199.258 228.77 197.482 226.154 197.482C224.906 197.482 223.826 197.794 222.65 198.802H222.554V197.674C222.002 197.674 221.162 197.722 220.682 197.818V215.194H222.554V210.034C223.346 210.322 224.21 210.49 225.05 210.49C228.458 210.49 230.546 208.45 230.546 203.602ZM228.53 203.818C228.53 207.49 227.426 208.834 225.002 208.834C224.234 208.834 223.322 208.666 222.554 208.282V200.146C223.466 199.522 224.522 199.162 225.602 199.162C227.426 199.162 228.53 200.05 228.53 203.818ZM244.182 203.986C244.182 199.378 242.095 197.482 238.927 197.482C235.783 197.482 233.575 199.81 233.575 203.986C233.575 208.594 235.663 210.49 238.807 210.49C241.855 210.49 244.182 208.402 244.182 203.986ZM242.167 203.986C242.167 207.826 240.751 208.858 238.855 208.858C236.791 208.858 235.59 207.706 235.59 203.986C235.59 200.146 237.007 199.114 238.903 199.114C240.967 199.114 242.167 200.266 242.167 203.986ZM254.151 197.602C253.863 197.506 253.431 197.482 253.167 197.482C252.375 197.482 251.511 197.626 250.095 199.258H249.999V197.674C249.447 197.674 248.607 197.722 248.127 197.818V210.25H249.999V200.794C251.151 199.57 252.015 199.426 252.879 199.426C253.311 199.426 253.695 199.474 253.959 199.546C254.055 198.946 254.151 198.202 254.151 197.602ZM263.364 210.034C263.34 209.482 263.22 208.834 263.076 208.354C262.596 208.594 261.828 208.738 261.252 208.738C260.004 208.738 259.548 208.282 259.548 206.698V199.33H262.572C262.644 198.826 262.692 198.226 262.692 197.722H259.548V194.674C259.02 194.698 258.156 194.842 257.7 194.986V197.722H256.164V199.33H257.7V206.554C257.7 209.218 258.636 210.49 261.132 210.49C261.804 210.49 262.74 210.322 263.364 210.034ZM271.735 192.49C271.399 192.442 270.967 192.394 270.607 192.394C268.783 192.394 267.031 193.714 267.031 196.162V197.722H265.495V199.33H267.031V210.25H268.903V199.33H271.543C271.639 198.802 271.687 198.25 271.687 197.722H268.903V195.994C268.903 194.698 269.335 194.122 270.487 194.122C270.823 194.122 271.351 194.146 271.591 194.194C271.687 193.642 271.735 193.018 271.735 192.49ZM284.612 203.986C284.612 199.378 282.524 197.482 279.356 197.482C276.212 197.482 274.004 199.81 274.004 203.986C274.004 208.594 276.092 210.49 279.236 210.49C282.284 210.49 284.612 208.402 284.612 203.986ZM282.596 203.986C282.596 207.826 281.18 208.858 279.284 208.858C277.22 208.858 276.02 207.706 276.02 203.986C276.02 200.146 277.436 199.114 279.332 199.114C281.396 199.114 282.596 200.266 282.596 203.986ZM290.429 210.25V192.394C289.877 192.394 289.037 192.466 288.557 192.562V210.25H290.429ZM297.347 194.194C297.347 193.546 296.963 192.994 296.219 192.994C295.475 192.994 295.091 193.546 295.091 194.194C295.091 194.842 295.475 195.37 296.195 195.37C296.963 195.37 297.347 194.866 297.347 194.194ZM297.155 210.25V197.722H295.283V210.25H297.155ZM311.682 203.986C311.682 199.378 309.595 197.482 306.427 197.482C303.283 197.482 301.075 199.81 301.075 203.986C301.075 208.594 303.163 210.49 306.307 210.49C309.355 210.49 311.682 208.402 311.682 203.986ZM309.667 203.986C309.667 207.826 308.251 208.858 306.355 208.858C304.291 208.858 303.09 207.706 303.09 203.986C303.09 200.146 304.507 199.114 306.403 199.114C308.467 199.114 309.667 200.266 309.667 203.986ZM329.19 202.45C329.19 199.258 327.606 197.482 324.654 197.482C321.798 197.482 319.614 199.474 319.614 204.154C319.614 208.426 321.558 210.49 325.23 210.49C326.55 210.49 328.038 210.202 328.95 209.65C328.854 209.098 328.662 208.402 328.47 207.898C327.726 208.354 326.454 208.714 325.302 208.714C322.542 208.714 321.654 207.346 321.654 204.466V204.346H329.118C329.166 203.77 329.19 202.978 329.19 202.45ZM324.606 199.018C326.31 199.018 327.318 199.906 327.318 202.114C327.318 202.282 327.318 202.69 327.294 202.882H321.678C321.75 200.098 322.854 199.018 324.606 199.018ZM339.161 210.034C339.137 209.482 339.017 208.834 338.873 208.354C338.393 208.594 337.625 208.738 337.049 208.738C335.801 208.738 335.345 208.282 335.345 206.698V199.33H338.369C338.441 198.826 338.489 198.226 338.489 197.722H335.345V194.674C334.817 194.698 333.953 194.842 333.497 194.986V197.722H331.961V199.33H333.497V206.554C333.497 209.218 334.433 210.49 336.929 210.49C337.601 210.49 338.537 210.322 339.161 210.034ZM350.124 209.746C350.052 209.17 349.884 208.522 349.692 208.018C348.948 208.474 347.844 208.714 346.884 208.714C344.484 208.714 343.356 207.658 343.356 203.77C343.356 200.362 344.628 199.258 346.668 199.258C347.58 199.258 348.54 199.402 349.428 199.786C349.596 199.234 349.74 198.538 349.812 198.01C348.924 197.65 347.532 197.482 346.572 197.482C343.716 197.482 341.34 199.378 341.34 204.202C341.34 208.354 343.212 210.49 346.86 210.49C347.772 210.49 349.26 210.25 350.124 209.746ZM354.891 209.386C354.891 208.642 354.435 208.186 353.811 208.186C353.163 208.186 352.683 208.642 352.683 209.386C352.683 210.106 353.139 210.514 353.787 210.514C354.435 210.514 354.891 210.13 354.891 209.386ZM360.024 209.386C360.024 208.642 359.568 208.186 358.944 208.186C358.296 208.186 357.816 208.642 357.816 209.386C357.816 210.106 358.272 210.514 358.92 210.514C359.568 210.514 360.024 210.13 360.024 209.386ZM365.156 209.386C365.156 208.642 364.7 208.186 364.076 208.186C363.428 208.186 362.948 208.642 362.948 209.386C362.948 210.106 363.404 210.514 364.052 210.514C364.7 210.514 365.156 210.13 365.156 209.386Z" fill="#052F43"/>
<path d="M11.9004 240.546C11.5004 240.466 10.9884 240.434 10.5884 240.434L8.28438 245.106C8.15638 245.378 8.06038 245.65 7.96438 245.938H7.86838C7.77238 245.65 7.66038 245.378 7.54838 245.138L5.26038 240.434C4.87638 240.434 4.25238 240.466 3.86838 240.546C4.84438 242.722 5.93238 244.946 7.19638 247.138V251.25H8.54038V247.138C9.80438 244.898 10.7644 242.962 11.9004 240.546ZM19.5644 247.074C19.5644 244.002 18.1724 242.738 16.0604 242.738C13.9644 242.738 12.4924 244.29 12.4924 247.074C12.4924 250.146 13.8844 251.41 15.9804 251.41C18.0124 251.41 19.5644 250.018 19.5644 247.074ZM18.2204 247.074C18.2204 249.634 17.2764 250.322 16.0124 250.322C14.6364 250.322 13.8364 249.554 13.8364 247.074C13.8364 244.514 14.7804 243.826 16.0444 243.826C17.4204 243.826 18.2204 244.594 18.2204 247.074ZM28.2741 251.25V242.85C27.9061 242.85 27.3461 242.898 27.0261 242.946V249.618C26.3861 250.018 25.6981 250.274 24.8341 250.274C23.7461 250.274 23.3621 249.714 23.3621 248.85V242.85C22.9941 242.85 22.4661 242.898 22.1301 242.946V248.898C22.1301 250.818 23.2021 251.41 24.4501 251.41C25.3781 251.41 26.1461 251.122 26.9621 250.53H27.0261V251.25H28.2741ZM40.0203 250.914C39.9723 250.53 39.8603 250.098 39.7323 249.762C39.2363 250.066 38.5003 250.226 37.8602 250.226C36.2603 250.226 35.5082 249.522 35.5082 246.93C35.5082 244.658 36.3563 243.922 37.7163 243.922C38.3243 243.922 38.9643 244.018 39.5563 244.274C39.6683 243.906 39.7643 243.442 39.8123 243.09C39.2203 242.85 38.2923 242.738 37.6523 242.738C35.7483 242.738 34.1643 244.002 34.1643 247.218C34.1643 249.986 35.4123 251.41 37.8443 251.41C38.4523 251.41 39.4443 251.25 40.0203 250.914ZM48.878 250.162H47.998C47.63 250.162 47.518 250.018 47.518 249.634V243.522C46.83 242.978 45.63 242.738 44.558 242.738C43.742 242.738 43.102 242.85 42.398 243.058C42.398 243.426 42.462 243.906 42.558 244.21C43.022 244.002 43.822 243.858 44.526 243.858C45.182 243.858 45.918 244.018 46.318 244.242V246.562L44.558 246.642C42.59 246.722 41.582 247.41 41.582 249.154C41.582 250.69 42.574 251.41 43.998 251.41C44.83 251.41 45.582 251.186 46.366 250.546H46.43C46.702 251.202 47.262 251.41 47.902 251.41C48.526 251.41 48.878 251.154 48.878 250.53V250.162ZM46.318 249.666C45.774 250.066 44.942 250.354 44.222 250.354C43.278 250.354 42.894 249.986 42.894 249.074C42.894 248.034 43.278 247.634 44.51 247.586L46.318 247.506V249.666ZM57.058 251.25V245.25C57.058 243.33 55.97 242.738 54.706 242.738C53.794 242.738 52.994 242.978 52.178 243.682H52.114V242.866C51.746 242.866 51.186 242.898 50.866 242.962V251.25H52.114V244.594C52.802 244.114 53.474 243.874 54.354 243.874C55.426 243.874 55.826 244.434 55.826 245.282V251.25H57.058ZM69.5554 251.25V242.85C69.1874 242.85 68.6274 242.898 68.3074 242.946V249.618C67.6674 250.018 66.9794 250.274 66.1154 250.274C65.0274 250.274 64.6434 249.714 64.6434 248.85V242.85C64.2754 242.85 63.7474 242.898 63.4114 242.946V248.898C63.4114 250.818 64.4834 251.41 65.7314 251.41C66.6594 251.41 67.4274 251.122 68.2434 250.53H68.3074V251.25H69.5554ZM77.4439 248.994C77.4439 246.258 73.4919 246.626 73.4919 245.09C73.4919 244.258 73.9879 243.842 74.9319 243.842C75.6039 243.842 76.3879 243.938 76.9639 244.146C77.0599 243.794 77.1559 243.314 77.1559 242.978C76.5319 242.802 75.7479 242.738 75.2359 242.738C73.5559 242.738 72.2119 243.602 72.2119 245.234C72.2119 247.746 76.1479 247.266 76.1479 249.074C76.1479 249.842 75.7319 250.274 74.6919 250.274C73.9079 250.274 73.0439 250.114 72.3879 249.778C72.2439 250.13 72.1479 250.514 72.0519 250.898C72.7079 251.25 73.6359 251.41 74.4359 251.41C76.0519 251.41 77.4439 250.626 77.4439 248.994ZM85.7514 246.05C85.7514 243.922 84.6954 242.738 82.7274 242.738C80.8234 242.738 79.3674 244.066 79.3674 247.186C79.3674 250.034 80.6634 251.41 83.1114 251.41C83.9914 251.41 84.9834 251.218 85.5914 250.85C85.5274 250.482 85.3994 250.018 85.2714 249.682C84.7754 249.986 83.9274 250.226 83.1594 250.226C81.3194 250.226 80.7274 249.314 80.7274 247.394V247.314H85.7034C85.7354 246.93 85.7514 246.402 85.7514 246.05ZM82.6954 243.762C83.8314 243.762 84.5034 244.354 84.5034 245.826C84.5034 245.938 84.5034 246.21 84.4874 246.338H80.7434C80.7914 244.482 81.5274 243.762 82.6954 243.762ZM96.2408 248.994C96.2408 246.258 92.2888 246.626 92.2888 245.09C92.2888 244.258 92.7848 243.842 93.7288 243.842C94.4008 243.842 95.1848 243.938 95.7608 244.146C95.8568 243.794 95.9528 243.314 95.9528 242.978C95.3288 242.802 94.5448 242.738 94.0328 242.738C92.3528 242.738 91.0088 243.602 91.0088 245.234C91.0088 247.746 94.9448 247.266 94.9448 249.074C94.9448 249.842 94.5288 250.274 93.4888 250.274C92.7048 250.274 91.8408 250.114 91.1848 249.778C91.0408 250.13 90.9448 250.514 90.8488 250.898C91.5048 251.25 92.4328 251.41 93.2328 251.41C94.8488 251.41 96.2408 250.626 96.2408 248.994ZM104.852 242.962C104.516 242.882 103.956 242.85 103.636 242.85L101.62 248.978C101.508 249.298 101.412 249.65 101.348 249.986H101.284C101.236 249.65 101.124 249.298 101.028 248.994L99.0283 242.85C98.6763 242.85 98.1483 242.898 97.8123 242.962C98.5483 245.682 99.6843 248.85 100.692 251.25L100.212 252.37C99.8763 253.154 99.4283 253.506 98.7723 253.506C98.3403 253.506 97.8603 253.41 97.5403 253.25C97.4123 253.554 97.3163 254.002 97.2683 254.402C97.7483 254.658 98.3083 254.706 98.6923 254.706C100.164 254.706 101.156 253.634 102.036 251.106L104.852 242.962ZM117.409 251.25V245.25C117.409 243.346 116.337 242.738 115.041 242.738C114.097 242.738 113.329 243.058 112.449 243.874C112.065 243.042 111.313 242.738 110.465 242.738C109.601 242.738 108.993 242.994 108.241 243.682H108.177V242.866C107.809 242.866 107.249 242.898 106.929 242.962V251.25H108.177V244.594C108.801 244.13 109.409 243.874 110.113 243.874C111.121 243.874 111.537 244.434 111.537 245.282V251.25H112.785V244.626C113.409 244.13 113.921 243.874 114.753 243.874C115.761 243.874 116.161 244.434 116.161 245.282V251.25H117.409ZM127.13 246.802C127.13 243.826 125.866 242.738 124.17 242.738C123.29 242.738 122.634 242.962 121.866 243.618H121.802V239.346C121.434 239.346 120.874 239.394 120.554 239.458V250.546C121.402 251.154 122.314 251.41 123.402 251.41C125.754 251.41 127.13 249.938 127.13 246.802ZM125.786 246.946C125.786 249.538 124.922 250.306 123.37 250.306C122.81 250.306 122.234 250.194 121.802 249.89V244.594C122.426 244.114 123.114 243.858 123.85 243.858C125.082 243.858 125.786 244.514 125.786 246.946ZM136.221 247.074C136.221 244.002 134.829 242.738 132.717 242.738C130.621 242.738 129.149 244.29 129.149 247.074C129.149 250.146 130.541 251.41 132.637 251.41C134.669 251.41 136.221 250.018 136.221 247.074ZM134.877 247.074C134.877 249.634 133.933 250.322 132.669 250.322C131.293 250.322 130.493 249.554 130.493 247.074C130.493 244.514 131.437 243.826 132.701 243.826C134.077 243.826 134.877 244.594 134.877 247.074ZM140.098 251.25V239.346C139.73 239.346 139.17 239.394 138.85 239.458V251.25H140.098ZM147.991 248.994C147.991 246.258 144.039 246.626 144.039 245.09C144.039 244.258 144.535 243.842 145.479 243.842C146.151 243.842 146.935 243.938 147.511 244.146C147.607 243.794 147.703 243.314 147.703 242.978C147.079 242.802 146.295 242.738 145.783 242.738C144.103 242.738 142.759 243.602 142.759 245.234C142.759 247.746 146.695 247.266 146.695 249.074C146.695 249.842 146.279 250.274 145.239 250.274C144.455 250.274 143.591 250.114 142.935 249.778C142.791 250.13 142.695 250.514 142.599 250.898C143.255 251.25 144.183 251.41 144.983 251.41C146.599 251.41 147.991 250.626 147.991 248.994ZM160.252 247.074C160.252 244.002 158.86 242.738 156.748 242.738C154.652 242.738 153.18 244.29 153.18 247.074C153.18 250.146 154.572 251.41 156.668 251.41C158.7 251.41 160.252 250.018 160.252 247.074ZM158.908 247.074C158.908 249.634 157.964 250.322 156.7 250.322C155.324 250.322 154.524 249.554 154.524 247.074C154.524 244.514 155.468 243.826 156.732 243.826C158.108 243.826 158.908 244.594 158.908 247.074ZM166.898 242.818C166.706 242.754 166.418 242.738 166.242 242.738C165.714 242.738 165.138 242.834 164.194 243.922H164.13V242.866C163.762 242.866 163.202 242.898 162.882 242.962V251.25H164.13V244.946C164.898 244.13 165.474 244.034 166.05 244.034C166.338 244.034 166.594 244.066 166.77 244.114C166.834 243.714 166.898 243.218 166.898 242.818ZM182.369 242.962C182.049 242.898 181.617 242.866 181.249 242.866L179.937 248.754C179.841 249.154 179.793 249.49 179.745 249.906H179.665C179.601 249.474 179.505 249.09 179.409 248.77L177.521 242.898H176.337L174.481 248.754C174.369 249.122 174.289 249.538 174.225 249.906H174.161C174.129 249.538 174.065 249.122 173.985 248.786L172.641 242.866C172.289 242.866 171.777 242.898 171.457 242.962C171.969 245.746 172.673 248.658 173.473 251.25H174.721L176.609 245.362C176.705 245.058 176.785 244.706 176.833 244.306H176.913C176.961 244.706 177.041 245.058 177.137 245.346L179.057 251.25H180.305C181.169 248.514 181.841 245.794 182.369 242.962ZM191.299 247.074C191.299 244.002 189.907 242.738 187.795 242.738C185.699 242.738 184.227 244.29 184.227 247.074C184.227 250.146 185.619 251.41 187.715 251.41C189.747 251.41 191.299 250.018 191.299 247.074ZM189.955 247.074C189.955 249.634 189.011 250.322 187.747 250.322C186.371 250.322 185.571 249.554 185.571 247.074C185.571 244.514 186.515 243.826 187.779 243.826C189.155 243.826 189.955 244.594 189.955 247.074ZM197.945 242.818C197.753 242.754 197.465 242.738 197.289 242.738C196.761 242.738 196.185 242.834 195.241 243.922H195.177V242.866C194.809 242.866 194.249 242.898 193.929 242.962V251.25H195.177V244.946C195.945 244.13 196.521 244.034 197.097 244.034C197.385 244.034 197.641 244.066 197.817 244.114C197.881 243.714 197.945 243.218 197.945 242.818ZM204.727 249.65C204.023 250.114 203.383 250.29 202.695 250.29C201.415 250.29 200.743 249.634 200.743 247.17C200.743 244.578 201.607 243.858 203.095 243.858C203.607 243.858 204.279 243.97 204.727 244.21V249.65ZM205.975 251.25V239.346C205.623 239.346 205.047 239.394 204.727 239.458V243.042C204.231 242.85 203.607 242.738 203.079 242.738C200.839 242.738 199.399 244.034 199.399 247.33C199.399 250.226 200.583 251.41 202.327 251.41C203.223 251.41 203.927 251.186 204.663 250.546H204.727V251.25H205.975ZM213.866 248.994C213.866 246.258 209.914 246.626 209.914 245.09C209.914 244.258 210.41 243.842 211.354 243.842C212.026 243.842 212.81 243.938 213.386 244.146C213.482 243.794 213.578 243.314 213.578 242.978C212.954 242.802 212.17 242.738 211.658 242.738C209.978 242.738 208.634 243.602 208.634 245.234C208.634 247.746 212.57 247.266 212.57 249.074C212.57 249.842 212.154 250.274 211.114 250.274C210.33 250.274 209.466 250.114 208.81 249.778C208.666 250.13 208.57 250.514 208.474 250.898C209.13 251.25 210.058 251.41 210.858 251.41C212.474 251.41 213.866 250.626 213.866 248.994ZM221.039 240.546C221.039 240.114 220.783 239.746 220.287 239.746C219.791 239.746 219.535 240.114 219.535 240.546C219.535 240.978 219.791 241.33 220.271 241.33C220.783 241.33 221.039 240.994 221.039 240.546ZM220.911 251.25V242.898H219.663V251.25H220.911ZM230.324 251.25V245.25C230.324 243.33 229.236 242.738 227.972 242.738C227.06 242.738 226.26 242.978 225.444 243.682H225.38V242.866C225.012 242.866 224.452 242.898 224.132 242.962V251.25H225.38V244.594C226.068 244.114 226.74 243.874 227.62 243.874C228.692 243.874 229.092 244.434 229.092 245.282V251.25H230.324ZM242.821 242.962C242.485 242.882 241.925 242.85 241.605 242.85L239.589 248.978C239.477 249.298 239.381 249.65 239.317 249.986H239.253C239.205 249.65 239.093 249.298 238.997 248.994L236.997 242.85C236.645 242.85 236.117 242.898 235.781 242.962C236.517 245.682 237.653 248.85 238.661 251.25L238.181 252.37C237.845 253.154 237.397 253.506 236.741 253.506C236.309 253.506 235.829 253.41 235.509 253.25C235.381 253.554 235.285 254.002 235.237 254.402C235.717 254.658 236.277 254.706 236.661 254.706C238.133 254.706 239.125 253.634 240.005 251.106L242.821 242.962ZM251.361 247.074C251.361 244.002 249.969 242.738 247.857 242.738C245.761 242.738 244.289 244.29 244.289 247.074C244.289 250.146 245.681 251.41 247.777 251.41C249.809 251.41 251.361 250.018 251.361 247.074ZM250.017 247.074C250.017 249.634 249.073 250.322 247.809 250.322C246.433 250.322 245.633 249.554 245.633 247.074C245.633 244.514 246.577 243.826 247.841 243.826C249.217 243.826 250.017 244.594 250.017 247.074ZM260.071 251.25V242.85C259.703 242.85 259.143 242.898 258.823 242.946V249.618C258.183 250.018 257.495 250.274 256.631 250.274C255.543 250.274 255.159 249.714 255.159 248.85V242.85C254.791 242.85 254.263 242.898 253.927 242.946V248.898C253.927 250.818 254.999 251.41 256.247 251.41C257.175 251.41 257.943 251.122 258.759 250.53H258.823V251.25H260.071ZM267.32 242.818C267.128 242.754 266.84 242.738 266.664 242.738C266.136 242.738 265.56 242.834 264.616 243.922H264.552V242.866C264.184 242.866 263.624 242.898 263.304 242.962V251.25H264.552V244.946C265.32 244.13 265.896 244.034 266.472 244.034C266.76 244.034 267.016 244.066 267.192 244.114C267.256 243.714 267.32 243.218 267.32 242.818ZM277.303 248.994C277.303 246.258 273.351 246.626 273.351 245.09C273.351 244.258 273.847 243.842 274.791 243.842C275.463 243.842 276.247 243.938 276.823 244.146C276.919 243.794 277.015 243.314 277.015 242.978C276.391 242.802 275.607 242.738 275.095 242.738C273.415 242.738 272.071 243.602 272.071 245.234C272.071 247.746 276.007 247.266 276.007 249.074C276.007 249.842 275.591 250.274 274.551 250.274C273.767 250.274 272.903 250.114 272.247 249.778C272.103 250.13 272.007 250.514 271.911 250.898C272.567 251.25 273.495 251.41 274.295 251.41C275.911 251.41 277.303 250.626 277.303 248.994ZM285.611 246.05C285.611 243.922 284.555 242.738 282.587 242.738C280.683 242.738 279.227 244.066 279.227 247.186C279.227 250.034 280.523 251.41 282.971 251.41C283.851 251.41 284.843 251.218 285.451 250.85C285.387 250.482 285.259 250.018 285.131 249.682C284.635 249.986 283.787 250.226 283.019 250.226C281.179 250.226 280.587 249.314 280.587 247.394V247.314H285.563C285.595 246.93 285.611 246.402 285.611 246.05ZM282.555 243.762C283.691 243.762 284.363 244.354 284.363 245.826C284.363 245.938 284.363 246.21 284.347 246.338H280.603C280.651 244.482 281.387 243.762 282.555 243.762ZM294.691 250.162H293.811C293.443 250.162 293.331 250.018 293.331 249.634V243.522C292.643 242.978 291.443 242.738 290.371 242.738C289.555 242.738 288.914 242.85 288.211 243.058C288.211 243.426 288.275 243.906 288.371 244.21C288.835 244.002 289.635 243.858 290.339 243.858C290.995 243.858 291.731 244.018 292.131 244.242V246.562L290.371 246.642C288.403 246.722 287.395 247.41 287.395 249.154C287.395 250.69 288.387 251.41 289.811 251.41C290.643 251.41 291.395 251.186 292.179 250.546H292.243C292.515 251.202 293.075 251.41 293.715 251.41C294.339 251.41 294.691 251.154 294.691 250.53V250.162ZM292.131 249.666C291.587 250.066 290.755 250.354 290.035 250.354C289.091 250.354 288.707 249.986 288.707 249.074C288.707 248.034 289.091 247.634 290.323 247.586L292.131 247.506V249.666ZM300.695 242.818C300.503 242.754 300.215 242.738 300.039 242.738C299.511 242.738 298.935 242.834 297.991 243.922H297.927V242.866C297.559 242.866 296.999 242.898 296.679 242.962V251.25H297.927V244.946C298.695 244.13 299.271 244.034 299.847 244.034C300.135 244.034 300.391 244.066 300.567 244.114C300.631 243.714 300.695 243.218 300.695 242.818ZM308.005 250.914C307.957 250.53 307.845 250.098 307.717 249.762C307.221 250.066 306.485 250.226 305.845 250.226C304.245 250.226 303.493 249.522 303.493 246.93C303.493 244.658 304.341 243.922 305.701 243.922C306.309 243.922 306.949 244.018 307.541 244.274C307.653 243.906 307.749 243.442 307.797 243.09C307.205 242.85 306.277 242.738 305.637 242.738C303.733 242.738 302.149 244.002 302.149 247.218C302.149 249.986 303.397 251.41 305.829 251.41C306.437 251.41 307.429 251.25 308.005 250.914ZM316.542 251.25V245.25C316.542 243.378 315.502 242.738 314.19 242.738C313.246 242.738 312.478 242.994 311.662 243.682H311.598V239.346C311.23 239.346 310.67 239.394 310.35 239.458V251.25H311.598V244.594C312.302 244.114 312.99 243.874 313.838 243.874C314.894 243.874 315.31 244.418 315.31 245.282V251.25H316.542ZM327.04 251.106C327.024 250.738 326.944 250.306 326.848 249.986C326.528 250.146 326.016 250.242 325.632 250.242C324.8 250.242 324.496 249.938 324.496 248.882V243.97H326.512C326.56 243.634 326.592 243.234 326.592 242.898H324.496V240.866C324.144 240.882 323.568 240.978 323.264 241.074V242.898H322.24V243.97H323.264V248.786C323.264 250.562 323.888 251.41 325.552 251.41C326 251.41 326.624 251.298 327.04 251.106ZM335.564 247.074C335.564 244.002 334.172 242.738 332.06 242.738C329.964 242.738 328.492 244.29 328.492 247.074C328.492 250.146 329.884 251.41 331.98 251.41C334.012 251.41 335.564 250.018 335.564 247.074ZM334.22 247.074C334.22 249.634 333.276 250.322 332.012 250.322C330.636 250.322 329.836 249.554 329.836 247.074C329.836 244.514 330.78 243.826 332.044 243.826C333.42 243.826 334.22 244.594 334.22 247.074ZM351.94 251.25V245.25C351.94 243.346 350.868 242.738 349.572 242.738C348.628 242.738 347.86 243.058 346.98 243.874C346.596 243.042 345.844 242.738 344.996 242.738C344.132 242.738 343.524 242.994 342.772 243.682H342.708V242.866C342.34 242.866 341.78 242.898 341.46 242.962V251.25H342.708V244.594C343.332 244.13 343.94 243.874 344.644 243.874C345.652 243.874 346.068 244.434 346.068 245.282V251.25H347.316V244.626C347.94 244.13 348.452 243.874 349.284 243.874C350.292 243.874 350.692 244.434 350.692 245.282V251.25H351.94ZM361.597 250.162H360.717C360.349 250.162 360.237 250.018 360.237 249.634V243.522C359.549 242.978 358.349 242.738 357.277 242.738C356.461 242.738 355.821 242.85 355.117 243.058C355.117 243.426 355.181 243.906 355.277 244.21C355.741 244.002 356.541 243.858 357.245 243.858C357.901 243.858 358.637 244.018 359.037 244.242V246.562L357.277 246.642C355.309 246.722 354.301 247.41 354.301 249.154C354.301 250.69 355.293 251.41 356.717 251.41C357.549 251.41 358.301 251.186 359.085 250.546H359.149C359.421 251.202 359.981 251.41 360.621 251.41C361.245 251.41 361.597 251.154 361.597 250.53V250.162ZM359.037 249.666C358.493 250.066 357.661 250.354 356.941 250.354C355.997 250.354 355.613 249.986 355.613 249.074C355.613 248.034 355.997 247.634 357.229 247.586L359.037 247.506V249.666ZM369.761 251.186C368.641 249.202 367.889 247.938 366.801 246.242L369.697 243.026C369.361 242.898 368.785 242.818 368.353 242.786L366.785 244.594C366.097 245.394 365.521 246.114 364.897 247.01H364.833V239.346C364.465 239.346 363.905 239.394 363.585 239.458V251.25H364.833V248.466L365.985 247.186L368.433 251.314C368.849 251.314 369.441 251.266 369.761 251.186ZM377.564 246.05C377.564 243.922 376.508 242.738 374.54 242.738C372.636 242.738 371.18 244.066 371.18 247.186C371.18 250.034 372.476 251.41 374.924 251.41C375.804 251.41 376.796 251.218 377.404 250.85C377.34 250.482 377.212 250.018 377.084 249.682C376.588 249.986 375.74 250.226 374.972 250.226C373.132 250.226 372.54 249.314 372.54 247.394V247.314H377.516C377.548 246.93 377.564 246.402 377.564 246.05ZM374.508 243.762C375.644 243.762 376.316 244.354 376.316 245.826C376.316 245.938 376.316 246.21 376.3 246.338H372.556C372.604 244.482 373.34 243.762 374.508 243.762ZM109.626 270.106C109.61 269.738 109.53 269.306 109.434 268.986C109.114 269.146 108.602 269.242 108.218 269.242C107.386 269.242 107.082 268.938 107.082 267.882V262.97H109.098C109.146 262.634 109.178 262.234 109.178 261.898H107.082V259.866C106.73 259.882 106.154 259.978 105.85 260.074V261.898H104.826V262.97H105.85V267.786C105.85 269.562 106.474 270.41 108.138 270.41C108.586 270.41 109.21 270.298 109.626 270.106ZM117.878 270.25V264.25C117.878 262.378 116.838 261.738 115.526 261.738C114.582 261.738 113.814 261.994 112.998 262.682H112.934V258.346C112.566 258.346 112.006 258.394 111.686 258.458V270.25H112.934V263.594C113.638 263.114 114.326 262.874 115.174 262.874C116.23 262.874 116.646 263.418 116.646 264.282V270.25H117.878ZM126.806 265.05C126.806 262.922 125.75 261.738 123.782 261.738C121.878 261.738 120.422 263.066 120.422 266.186C120.422 269.034 121.718 270.41 124.166 270.41C125.046 270.41 126.038 270.218 126.646 269.85C126.582 269.482 126.454 269.018 126.326 268.682C125.83 268.986 124.982 269.226 124.214 269.226C122.374 269.226 121.782 268.314 121.782 266.394V266.314H126.758C126.79 265.93 126.806 265.402 126.806 265.05ZM123.75 262.762C124.886 262.762 125.558 263.354 125.558 264.826C125.558 264.938 125.558 265.21 125.542 265.338H121.798C121.846 263.482 122.582 262.762 123.75 262.762ZM136.655 261.818C136.463 261.754 136.175 261.738 135.999 261.738C135.471 261.738 134.895 261.834 133.951 262.922H133.887V261.866C133.519 261.866 132.959 261.898 132.639 261.962V270.25H133.887V263.946C134.655 263.13 135.231 263.034 135.807 263.034C136.095 263.034 136.351 263.066 136.527 263.114C136.591 262.714 136.655 262.218 136.655 261.818ZM144.494 265.05C144.494 262.922 143.438 261.738 141.47 261.738C139.566 261.738 138.11 263.066 138.11 266.186C138.11 269.034 139.406 270.41 141.854 270.41C142.734 270.41 143.726 270.218 144.334 269.85C144.27 269.482 144.142 269.018 144.014 268.682C143.518 268.986 142.67 269.226 141.902 269.226C140.062 269.226 139.47 268.314 139.47 266.394V266.314H144.446C144.478 265.93 144.494 265.402 144.494 265.05ZM141.438 262.762C142.574 262.762 143.246 263.354 143.246 264.826C143.246 264.938 143.246 265.21 143.23 265.338H139.486C139.534 263.482 140.27 262.762 141.438 262.762ZM151.717 267.994C151.717 265.258 147.765 265.626 147.765 264.09C147.765 263.258 148.261 262.842 149.205 262.842C149.877 262.842 150.661 262.938 151.237 263.146C151.333 262.794 151.429 262.314 151.429 261.978C150.805 261.802 150.021 261.738 149.509 261.738C147.829 261.738 146.485 262.602 146.485 264.234C146.485 266.746 150.421 266.266 150.421 268.074C150.421 268.842 150.005 269.274 148.965 269.274C148.181 269.274 147.317 269.114 146.661 268.778C146.517 269.13 146.421 269.514 146.325 269.898C146.981 270.25 147.909 270.41 148.709 270.41C150.325 270.41 151.717 269.626 151.717 267.994ZM160.329 270.25V261.85C159.961 261.85 159.401 261.898 159.081 261.946V268.618C158.441 269.018 157.753 269.274 156.889 269.274C155.801 269.274 155.417 268.714 155.417 267.85V261.85C155.049 261.85 154.521 261.898 154.185 261.946V267.898C154.185 269.818 155.257 270.41 156.505 270.41C157.433 270.41 158.201 270.122 159.017 269.53H159.081V270.25H160.329ZM164.809 270.25V258.346C164.441 258.346 163.881 258.394 163.561 258.458V270.25H164.809ZM172.126 270.106C172.11 269.738 172.03 269.306 171.934 268.986C171.614 269.146 171.102 269.242 170.718 269.242C169.886 269.242 169.582 268.938 169.582 267.882V262.97H171.598C171.646 262.634 171.678 262.234 171.678 261.898H169.582V259.866C169.23 259.882 168.654 259.978 168.35 260.074V261.898H167.326V262.97H168.35V267.786C168.35 269.562 168.974 270.41 170.638 270.41C171.086 270.41 171.71 270.298 172.126 270.106ZM178.842 267.994C178.842 265.258 174.89 265.626 174.89 264.09C174.89 263.258 175.386 262.842 176.33 262.842C177.002 262.842 177.786 262.938 178.362 263.146C178.458 262.794 178.554 262.314 178.554 261.978C177.93 261.802 177.146 261.738 176.634 261.738C174.954 261.738 173.61 262.602 173.61 264.234C173.61 266.746 177.546 266.266 177.546 268.074C177.546 268.842 177.13 269.274 176.09 269.274C175.306 269.274 174.442 269.114 173.786 268.778C173.642 269.13 173.546 269.514 173.45 269.898C174.106 270.25 175.034 270.41 175.834 270.41C177.45 270.41 178.842 269.626 178.842 267.994ZM195.119 270.25V264.25C195.119 262.346 194.047 261.738 192.751 261.738C191.807 261.738 191.039 262.058 190.159 262.874C189.775 262.042 189.023 261.738 188.175 261.738C187.311 261.738 186.703 261.994 185.951 262.682H185.887V261.866C185.519 261.866 184.959 261.898 184.639 261.962V270.25H185.887V263.594C186.511 263.13 187.119 262.874 187.823 262.874C188.831 262.874 189.247 263.434 189.247 264.282V270.25H190.495V263.626C191.119 263.13 191.631 262.874 192.463 262.874C193.471 262.874 193.871 263.434 193.871 264.282V270.25H195.119ZM204.728 266.074C204.728 263.002 203.336 261.738 201.224 261.738C199.128 261.738 197.656 263.29 197.656 266.074C197.656 269.146 199.048 270.41 201.144 270.41C203.176 270.41 204.728 269.018 204.728 266.074ZM203.384 266.074C203.384 268.634 202.44 269.322 201.176 269.322C199.8 269.322 199 268.554 199 266.074C199 263.514 199.944 262.826 201.208 262.826C202.584 262.826 203.384 263.594 203.384 266.074ZM211.374 261.818C211.182 261.754 210.894 261.738 210.718 261.738C210.19 261.738 209.614 261.834 208.67 262.922H208.606V261.866C208.238 261.866 207.678 261.898 207.358 261.962V270.25H208.606V263.946C209.374 263.13 209.95 263.034 210.526 263.034C210.814 263.034 211.07 263.066 211.246 263.114C211.31 262.714 211.374 262.218 211.374 261.818ZM219.212 265.05C219.212 262.922 218.156 261.738 216.188 261.738C214.284 261.738 212.828 263.066 212.828 266.186C212.828 269.034 214.124 270.41 216.572 270.41C217.452 270.41 218.444 270.218 219.052 269.85C218.988 269.482 218.86 269.018 218.732 268.682C218.236 268.986 217.388 269.226 216.62 269.226C214.78 269.226 214.188 268.314 214.188 266.394V266.314H219.164C219.196 265.93 219.212 265.402 219.212 265.05ZM216.156 262.762C217.292 262.762 217.964 263.354 217.964 264.826C217.964 264.938 217.964 265.21 217.948 265.338H214.204C214.252 263.482 214.988 262.762 216.156 262.762ZM231.622 265.818C231.622 262.922 230.438 261.738 228.694 261.738C227.862 261.738 227.142 261.946 226.358 262.618H226.294V261.866C225.926 261.866 225.366 261.898 225.046 261.962V273.546H226.294V270.106C226.822 270.298 227.398 270.41 227.958 270.41C230.23 270.41 231.622 269.05 231.622 265.818ZM230.278 265.962C230.278 268.41 229.542 269.306 227.926 269.306C227.414 269.306 226.806 269.194 226.294 268.938V263.514C226.902 263.098 227.606 262.858 228.326 262.858C229.542 262.858 230.278 263.45 230.278 265.962ZM238.265 261.818C238.073 261.754 237.785 261.738 237.609 261.738C237.081 261.738 236.505 261.834 235.561 262.922H235.497V261.866C235.129 261.866 234.569 261.898 234.249 261.962V270.25H235.497V263.946C236.265 263.13 236.841 263.034 237.417 263.034C237.705 263.034 237.961 263.066 238.137 263.114C238.201 262.714 238.265 262.218 238.265 261.818ZM246.103 265.05C246.103 262.922 245.047 261.738 243.079 261.738C241.175 261.738 239.719 263.066 239.719 266.186C239.719 269.034 241.015 270.41 243.463 270.41C244.343 270.41 245.335 270.218 245.943 269.85C245.879 269.482 245.751 269.018 245.623 268.682C245.127 268.986 244.279 269.226 243.511 269.226C241.671 269.226 241.079 268.314 241.079 266.394V266.314H246.055C246.087 265.93 246.103 265.402 246.103 265.05ZM243.047 262.762C244.183 262.762 244.855 263.354 244.855 264.826C244.855 264.938 244.855 265.21 244.839 265.338H241.095C241.143 263.482 241.879 262.762 243.047 262.762ZM253.919 269.914C253.871 269.53 253.759 269.098 253.631 268.762C253.135 269.066 252.399 269.226 251.759 269.226C250.159 269.226 249.407 268.522 249.407 265.93C249.407 263.658 250.255 262.922 251.615 262.922C252.223 262.922 252.863 263.018 253.455 263.274C253.567 262.906 253.663 262.442 253.711 262.09C253.119 261.85 252.191 261.738 251.551 261.738C249.647 261.738 248.063 263.002 248.063 266.218C248.063 268.986 249.311 270.41 251.743 270.41C252.351 270.41 253.343 270.25 253.919 269.914ZM257.64 259.546C257.64 259.114 257.384 258.746 256.888 258.746C256.392 258.746 256.136 259.114 256.136 259.546C256.136 259.978 256.392 260.33 256.872 260.33C257.384 260.33 257.64 259.994 257.64 259.546ZM257.512 270.25V261.898H256.264V270.25H257.512ZM265.389 267.994C265.389 265.258 261.437 265.626 261.437 264.09C261.437 263.258 261.933 262.842 262.877 262.842C263.549 262.842 264.333 262.938 264.909 263.146C265.005 262.794 265.101 262.314 265.101 261.978C264.477 261.802 263.693 261.738 263.181 261.738C261.501 261.738 260.157 262.602 260.157 264.234C260.157 266.746 264.093 266.266 264.093 268.074C264.093 268.842 263.677 269.274 262.637 269.274C261.853 269.274 260.989 269.114 260.333 268.778C260.189 269.13 260.093 269.514 259.997 269.898C260.653 270.25 261.581 270.41 262.381 270.41C263.997 270.41 265.389 269.626 265.389 267.994ZM273.697 265.05C273.697 262.922 272.641 261.738 270.673 261.738C268.769 261.738 267.313 263.066 267.313 266.186C267.313 269.034 268.609 270.41 271.057 270.41C271.937 270.41 272.929 270.218 273.537 269.85C273.473 269.482 273.345 269.018 273.217 268.682C272.721 268.986 271.873 269.226 271.105 269.226C269.265 269.226 268.673 268.314 268.673 266.394V266.314H273.649C273.681 265.93 273.697 265.402 273.697 265.05ZM270.641 262.762C271.777 262.762 272.449 263.354 272.449 264.826C272.449 264.938 272.449 265.21 272.433 265.338H268.689C268.737 263.482 269.473 262.762 270.641 262.762ZM277.096 269.674C277.096 269.178 276.792 268.874 276.376 268.874C275.944 268.874 275.624 269.178 275.624 269.674C275.624 270.154 275.928 270.426 276.36 270.426C276.792 270.426 277.096 270.17 277.096 269.674Z" fill="#AABDC6"/>
</svg>
