<svg xmlns="http://www.w3.org/2000/svg" width="102" height="32" viewBox="0 0 102 32">
    <g fill="#FF9400" fill-rule="evenodd">
        <path d="M15.435 0H9.412C6.588 7.812 0 26.824 0 27.294h5.176c.095-.565 2.165-6.965 2.165-6.965h9.788s2.165 6.4 2.26 6.965h5.364c0-.47-6.588-19.482-9.318-27.294zm.66 16.659H8.658l3.012-9.6c.188-.847.564-1.883.658-2.447h.189c.094.564.376 1.6.658 2.447l2.918 9.6zM33.13 23.153V.094s-3.954-.094-7.624 0c0 .565-.094 1.318-.094 1.882 0 .565 0 1.224.094 1.789l2.541.282v23.247h14.024V23.06h-8.942v.094zM58.165 8.847c0 3.482-1.694 5.177-4.8 5.177h-2.541V4.047c.847 0 1.788-.094 2.917-.094 2.73 0 4.424 1.506 4.424 4.894m5.364 0C63.53 2.635 59.576 0 53.271 0c-3.2 0-6.777 0-10.353.188 0 .565-.094 1.318-.094 1.883 0 .564 0 1.223.094 1.788l2.823.282v23.153h5.083V18.26h3.2c4.894 0 9.505-2.918 9.505-9.412M67.576 27.294L72.847 27.294 72.847 0 70.306 0 67.576 0zM97.318 24.847c2.164-2.353 3.858-5.741 3.858-10.635 0-9.694-4.8-14.212-12.14-14.212-6.965 0-12.142 4.8-12.142 14.306 0 6.494 2.541 11.859 6.118 13.93l2.447-4.8c-1.6-1.6-3.106-3.671-3.106-9.224 0-7.341 2.447-9.977 6.588-9.977s6.777 2.447 6.777 9.977c0 2.917-.565 5.364-1.13 6.494h-.094s-.282-.565-.659-1.224l-1.13-1.882c-1.881-.094-3.764-.094-5.646 0l8.847 14.306c1.788.094 3.765.094 5.835 0l-4.423-7.059z"/>
    </g>
</svg>
