<?xml version="1.0" encoding="UTF-8"?>
<svg width="32px" height="32px" viewBox="0 0 32 32" version="1.1" xmlns="http://www.w3.org/2000/svg" xmlns:xlink="http://www.w3.org/1999/xlink">
    <!-- Generator: Sketch 63.1 (92452) - https://sketch.com -->
    <title>icons/atoms</title>
    <desc>Created with Sketch.</desc>
    <g id="icons/atoms" stroke="none" stroke-width="1" fill="none" fill-rule="evenodd">
        <g id="atom" transform="translate(-0.000000, 0.000000)" fill-rule="nonzero">
            <path d="M15.9473684,0.028340081 C7.21813902,0.028340081 0.141700405,7.10477869 0.141700405,15.8340081 C0.141700405,24.5632375 7.21813902,31.6396761 15.9473684,31.6396761 C24.6765978,31.6396761 31.7530364,24.5632375 31.7530364,15.8340081 C31.7530364,7.10477869 24.6765978,0.028340081 15.9473684,0.028340081 Z M15.9473684,1.97165992 C23.6033319,1.97165992 29.8097166,8.1780446 29.8097166,15.8340081 C29.8097166,23.4899716 23.6033319,29.6963563 15.9473684,29.6963563 C8.29140493,29.6963563 2.08502024,23.4899716 2.08502024,15.8340081 C2.08502024,8.1780446 8.29140493,1.97165992 15.9473684,1.97165992 Z" id="Oval" fill="#052F43"></path>
            <circle id="Oval" fill="#768D98" cx="15.9473684" cy="15.8340081" r="8.55060729"></circle>
            <path d="M31.2672065,6.63562753 C31.2672065,8.6437247 29.6477733,10.2631579 27.6396761,10.2631579 C25.6315789,10.2631579 24.0121457,8.6437247 24.0121457,6.63562753 C24.0121457,4.62753036 25.6315789,3.00809717 27.6396761,3.00809717 C29.6315789,3.00809717 31.2672065,4.62753036 31.2672065,6.63562753 Z" id="Path" fill="#768D98"></path>
        </g>
    </g>
</svg>