<?xml version="1.0" encoding="UTF-8"?>
<svg width="32px" height="32px" viewBox="0 0 32 32" version="1.1" xmlns="http://www.w3.org/2000/svg" xmlns:xlink="http://www.w3.org/1999/xlink">
    <g id="Artboard" stroke="none" stroke-width="1" fill="none" fill-rule="evenodd">
        <path d="M19.75,21.625 C19.4050293,21.625 19.125,21.9050293 19.125,22.25 C19.125,22.5949707 19.4050293,22.875 19.75,22.875 C20.0949707,22.875 20.375,22.5949707 20.375,22.25 C20.375,21.9050293 20.0949707,21.625 19.75,21.625 Z" id="Path" fill="#052F43"></path>
        <path d="M28.875,0 L3.125,0 C1.4018555,0 0,1.4018555 0,3.125 L0,22.25 C0,23.9731445 1.4018555,25.375 3.125,25.375 L12.875,25.375 L12.875,28.25 L12.25,28.25 C11.4155274,28.25 10.6311035,28.5751953 10.0405274,29.1655274 C9.45019531,29.7561035 9.125,30.5405274 9.125,31.375 C9.125,31.7202149 9.40478513,32 9.75,32 L22.25,32 C22.5952149,32 22.875,31.7202149 22.875,31.375 C22.875,29.6518555 21.4731445,28.25 19.75,28.25 L19.125,28.25 L19.125,25.375 L28.875,25.375 C30.5981445,25.375 32,23.9731445 32,22.25 L32,3.125 C32,1.4018555 30.5981445,0 28.875,0 Z M3.125,1.25 L28.875,1.25 C29.9089356,1.25 30.75,2.09106444 30.75,3.125 L30.75,19.125 L27.875,19.125 L27.875,4.75 C27.875,4.40478513 27.5952149,4.125 27.25,4.125 L22.25,4.125 C21.9047851,4.125 21.625,4.40478513 21.625,4.75 L21.625,19.125 L18.496582,19.125 C18.4899902,18.4785156 18.4731445,17.8413086 18.4462891,17.2231445 C18.3369141,14.6777344 18.0876465,12.9726562 17.9580078,12.2226562 C19.2475586,11.2731934 19.5996094,9.51342775 18.8112793,8.14624025 L16.6450195,4.39428712 C16.5332031,4.20092775 16.3269043,4.08178712 16.1037597,4.08178712 C15.8803711,4.08178712 15.6740722,4.20092775 15.5625,4.39428712 L13.3952637,8.14648438 C12.6520996,9.43554688 12.9155274,11.1052246 14.0830078,12.0905762 C13.9477539,12.8383789 13.6748047,14.6044922 13.5561524,17.2219238 C13.5280762,17.8466797 13.5102539,18.484375 13.503418,19.125 L10.375,19.125 L10.375,9.75 C10.375,9.65087888 10.3515625,9.56054688 10.3132324,9.48022462 C10.3115234,9.47705075 10.3105469,9.47363281 10.309082,9.470459 L7.809082,4.470459 C7.703125,4.25878906 7.48681637,4.125 7.25,4.125 C7.01318362,4.125 6.796875,4.25878906 6.690918,4.470459 L4.190918,9.470459 C4.18945312,9.47363281 4.18847656,9.47705075 4.18701175,9.48022462 C4.14794925,9.56127931 4.125,9.65307619 4.125,9.75 L4.125,19.125 L1.25,19.125 L1.25,3.125 C1.25,2.09106444 2.09106444,1.25 3.125,1.25 Z M22.875,19.125 L22.875,5.375 L26.625,5.375 L26.625,6.625 L26,6.625 C25.6547851,6.625 25.375,6.90478513 25.375,7.25 C25.375,7.59521487 25.6547851,7.875 26,7.875 L26.625,7.875 L26.625,9.75 L26,9.75 C25.6547851,9.75 25.375,10.0297851 25.375,10.375 C25.375,10.7202149 25.6547851,11 26,11 L26.625,11 L26.625,12.875 L26,12.875 C25.6547851,12.875 25.375,13.1547851 25.375,13.5 C25.375,13.8452149 25.6547851,14.125 26,14.125 L26.625,14.125 L26.625,16.625 L26,16.625 C25.6547851,16.625 25.375,16.9047851 25.375,17.25 C25.375,17.5952149 25.6547851,17.875 26,17.875 L26.625,17.875 L26.625,19.125 L22.875,19.125 Z M16.1037598,12.8317871 C16.3308106,12.8317871 16.5568848,12.8056641 16.7780762,12.7568359 C16.894043,13.5002441 17.0644531,14.8156738 17.1652832,16.625 L14.8388672,16.625 C14.9445801,14.8168945 15.1230469,13.480957 15.2463379,12.7124024 C15.5231934,12.7912598 15.8115234,12.8317871 16.1037598,12.8317871 Z M16.1037598,11.5817871 C14.675293,11.5817871 13.7541504,10.0270996 14.4780274,8.77124025 L16.1037598,5.95678712 L17.7285156,8.77099612 C18.449707,10.0217285 17.5412597,11.5817871 16.1037598,11.5817871 Z M14.7814941,17.875 L17.2202149,17.875 C17.2333984,18.2856445 17.2424316,18.7033691 17.2468262,19.125 L14.753418,19.125 C14.7580566,18.7060547 14.7675781,18.2883301 14.7814941,17.875 Z M7.875,19.125 L7.875,10.375 L9.125,10.375 L9.125,19.125 L7.875,19.125 Z M5.375,19.125 L5.375,10.375 L6.625,10.375 L6.625,19.125 L5.375,19.125 Z M5.7612305,9.125 L7.25,6.14746094 L8.7387695,9.125 L5.7612305,9.125 Z M21.5178223,30.75 L10.4814453,30.75 C10.5732422,30.4895019 10.7231445,30.2507324 10.9243164,30.0493164 C11.2788086,29.6950684 11.7495117,29.5 12.25,29.5 L19.75,29.5 C20.5649414,29.5 21.2600098,30.0224609 21.5178223,30.75 Z M17.875,28.25 L14.125,28.25 L14.125,25.375 L17.875,25.375 L17.875,28.25 Z M28.875,24.125 L3.125,24.125 C2.09106444,24.125 1.25,23.2839356 1.25,22.25 L1.25,20.375 L30.75,20.375 L30.75,22.25 C30.75,23.2839356 29.9089356,24.125 28.875,24.125 Z" id="Shape" fill="#052F43"></path>
        <path d="M17.25,21.625 L13.5,21.625 C13.1547851,21.625 12.875,21.9047851 12.875,22.25 C12.875,22.5952149 13.1547851,22.875 13.5,22.875 L17.25,22.875 C17.5952149,22.875 17.875,22.5952149 17.875,22.25 C17.875,21.9047851 17.5952149,21.625 17.25,21.625 Z" id="Path" fill="#052F43"></path>
    </g>
</svg>