<?xml version="1.0" encoding="UTF-8"?>
<svg width="32px" height="32px" viewBox="0 0 32 32" version="1.1" xmlns="http://www.w3.org/2000/svg" xmlns:xlink="http://www.w3.org/1999/xlink">
    <!-- Generator: Sketch 63.1 (92452) - https://sketch.com -->
    <title>icons/iQ-ube/home</title>
    <desc>Created with Sketch.</desc>
    <g id="icons/iQ-ube/home" stroke="none" stroke-width="1" fill="none" fill-rule="evenodd">
        <g id="Home" fill="#052F43" fill-rule="nonzero">
            <path d="M31.8171275,16.2115278 L16.5127082,0.207057831 C16.2497508,-0.0690192769 15.7502492,-0.0690192769 15.4872918,0.207057831 L0.182872518,16.2115278 C-0.00358460975,16.4062697 -0.0522369418,16.6876608 0.0590242893,16.9304161 C0.170350738,17.1731714 0.420786334,17.329215 0.69626549,17.329215 L4.17451592,17.329215 L4.17451592,31.3331262 C4.17451592,31.7012291 4.48619085,32 4.8701921,32 L11.8267582,32 C12.2107594,32 12.5224344,31.7012291 12.5224344,31.3331262 L12.5224344,21.3303325 L19.4790004,21.3303325 L19.4790004,31.3331262 C19.4790004,31.7012291 19.7906754,32 20.1746766,32 L27.1312427,32 C27.5152439,32 27.8269189,31.7012291 27.8269189,31.3331262 L27.8269189,17.329215 L31.3051693,17.329215 C31.5806485,17.329215 31.831084,17.1731714 31.9409757,16.9304161 C32.0522369,16.6876608 32.0035846,16.4062697 31.8171275,16.2115278 Z M27.1311775,15.9954675 C26.7471762,15.9954675 26.4355013,16.2942384 26.4355013,16.6623412 L26.4355013,30.6662525 L20.8702876,30.6662525 L20.8702876,20.6634587 C20.8702876,20.2953559 20.5586126,19.996585 20.1746114,19.996585 L11.8267582,19.996585 C11.4427569,19.996585 11.131082,20.2953559 11.131082,20.6634587 L11.131082,30.6662525 L5.56593349,30.6662525 L5.56593349,16.6623412 C5.56593349,16.2942384 5.25425856,15.9954675 4.87025731,15.9954675 L2.27824889,15.9954675 L16.00075,1.64477188 L29.7232511,15.9954675 L27.1311775,15.9954675 Z" id="Shape"></path>
        </g>
    </g>
</svg>