<svg width="32px" height="32px" viewBox="0 0 32 32" version="1.1" xmlns="http://www.w3.org/2000/svg" xmlns:xlink="http://www.w3.org/1999/xlink">
    <g id="Artboard" stroke="none" stroke-width="1" fill="none" fill-rule="evenodd">
        <g id="icon-close" fill="#ff9400">
            <path d="M17.8666667,16 L31.58,2.292 C32.1093333,1.78 32.124,0.937333333 31.612,0.408 C31.1013333,-0.121333333 30.2586667,-0.136 29.7293333,0.374666667 L29.696,0.408 L15.9853333,14.1186667 L2.27333333,0.406666667 C1.744,-0.104 0.9,-0.0893333333 0.390666667,0.44 C-0.108,0.956 -0.108,1.77333333 0.390666667,2.29066667 L14.1,16 L0.390666667,29.712 C-0.129333333,30.232 -0.129333333,31.0746667 0.390666667,31.5946667 C0.910666667,32.1146667 1.75333333,32.1146667 2.27333333,31.5946667 L15.984,17.884 L29.6946667,31.5946667 C30.224,32.1053333 31.068,32.0906667 31.5786667,31.5626667 C32.076,31.0453333 32.076,30.228 31.5786667,29.712 L17.8666667,16 Z" id="Path"></path>
        </g>
    </g>
</svg>