<svg xmlns="http://www.w3.org/2000/svg" width="32" height="32" viewBox="0 0 32 32">
    <g fill="#052F43" fill-rule="evenodd">
        <path d="M29.477 13.69h-1.582c-.186-.722-.793-1.225-1.488-1.232h-1.69V8.005c.004-.17-.077-.329-.212-.416L12.585.17c-.136-.085-.305-.085-.441 0L.22 7.59C.084 7.675 0 7.833 0 8.005v14.84c0 .17.085.33.222.415l11.924 7.42c.068.042.144.064.222.064.08 0 .16-.022.23-.064l6.274-3.901v2.82c-.002.542.198 1.062.555 1.445.357.382.84.595 1.344.59h8.706c.505.005.99-.207 1.35-.589.358-.382.56-.903.562-1.446V15.758c0-1.14-.855-2.063-1.912-2.067zm-3.054-.273c.356 0 .645.311.645.695v.047c0 .384-.289.696-.645.696h-2.585c-.357 0-.646-.312-.646-.696v-.047c0-.384.29-.695.646-.695h2.585zM12.368 1.138l4.955 3.083L6.29 11.087 1.335 8.004l11.033-6.866zm-.422 28.296L.89 22.568V8.834L11.946 15.7v13.734zm.422-14.564L7.18 11.64l11.033-6.865 5.19 3.229-11.034 6.866zm6.504.888v9.914l-6.037 3.762V15.7l10.993-6.866v3.624h.013c-.695.007-1.302.51-1.487 1.233H20.77c-1.054.005-1.905.93-1.9 2.067zm11.627 13.84c0 .29-.11.567-.302.77-.192.202-.451.313-.72.307h-8.706c-.267.005-.525-.106-.715-.309-.19-.203-.296-.48-.295-.767V15.758c-.003-.292.102-.572.292-.78.19-.208.447-.326.718-.329h1.6c.196.697.795 1.172 1.47 1.165h2.566c.675.007 1.274-.468 1.47-1.165h1.6c.566.004 1.022.5 1.022 1.109v13.84z"/>
        <path d="M21.333 18.378c-.248 0-.45.235-.45.525 0 .29.202.526.45.526l7.644.014c.249 0 .45-.235.45-.526 0-.29-.201-.525-.45-.525l-7.644-.014zM21.333 22.896c-.248 0-.45.235-.45.525 0 .29.202.526.45.526l7.644.014c.249 0 .45-.235.45-.525 0-.29-.201-.526-.45-.526l-7.644-.014zM21.333 27.467c-.248 0-.45.236-.45.526 0 .29.202.525.45.525l7.644.015c.249 0 .45-.236.45-.526 0-.29-.201-.525-.45-.525l-7.644-.015z"/>
    </g>
</svg>
