<svg xmlns="http://www.w3.org/2000/svg" width="24" height="23" viewBox="0 0 24 23">
    <g fill="#052F43" fill-rule="evenodd">
        <path d="M24 11.429C24 5.112 18.633 0 12 0 5.368 0 0 5.111 0 11.429c0 6.26 5.322 11.428 12 11.428 6.65 0 12-5.14 12-11.428zM12 1.339c5.841 0 10.594 4.526 10.594 10.09 0 2.035-.636 3.99-1.814 5.648-4.733-4.849-12.818-4.858-17.56 0-1.178-1.657-1.814-3.613-1.814-5.648C1.406 5.865 6.16 1.339 12 1.339zM4.098 18.147c4.208-4.495 11.597-4.494 15.804 0-4.222 4.5-11.58 4.5-15.804 0z"/>
        <path d="M11.703 11.851c2.268 0 4.114-1.765 4.114-3.936V6.603c0-2.17-1.846-3.935-4.114-3.935-2.269 0-4.114 1.765-4.114 3.935v1.312c0 2.17 1.845 3.936 4.114 3.936zM8.96 6.603c0-1.446 1.23-2.623 2.743-2.623 1.512 0 2.743 1.177 2.743 2.623v1.312c0 1.447-1.23 2.624-2.743 2.624S8.96 9.362 8.96 7.915V6.603z"/>
    </g>
</svg>
