<svg xmlns="http://www.w3.org/2000/svg" width="24" height="24" viewBox="0 0 24 24">
    <path fill="#FFF" fill-rule="evenodd" d="M12 0C5.379 0 0 5.379 0 12s5.379 12 12 12 12-5.379 12-12S18.621 0 12 0zm-.522 1.231v10.247h-5.2c.15-4.385 2.186-8.352 5.2-10.247zm1.044 0c3.014 1.895 5.05 5.862 5.2 10.247h-5.2V1.231zm-2.878.073c-2.646 2.32-4.28 6.096-4.41 10.174H1.06c.235-5.013 3.827-9.133 8.584-10.174zm4.712 0c4.757 1.04 8.349 5.16 8.584 10.174h-4.174c-.13-4.078-1.764-7.853-4.41-10.174zM1.06 12.522h4.174c.129 4.087 1.77 7.863 4.426 10.182-4.767-1.036-8.368-5.16-8.6-10.182zm5.217 0h5.201V22.76c-3.015-1.896-5.05-5.853-5.2-10.24zm6.245 0h5.2c-.15 4.386-2.185 8.343-5.2 10.239V12.52zm6.244 0h4.174c-.232 5.022-3.833 9.146-8.6 10.182 2.655-2.32 4.297-6.095 4.426-10.182z"/>
</svg>
