<?xml version="1.0" encoding="UTF-8"?>
<svg width="32px" height="32px" viewBox="0 0 32 32" version="1.1" xmlns="http://www.w3.org/2000/svg" xmlns:xlink="http://www.w3.org/1999/xlink">
    <!-- Generator: Sketch 63.1 (92452) - https://sketch.com -->
    <title>icons/molecules</title>
    <desc>Created with Sketch.</desc>
    <g id="icons/molecules" stroke="none" stroke-width="1" fill="none" fill-rule="evenodd">
        <g id="Group" transform="translate(0.000000, 1.000000)" fill-rule="nonzero">
            <path d="M8.0945749,13.7134182 C3.62406463,13.7134182 6.21724894e-13,17.3536616 6.21724894e-13,21.8441296 C6.21724894e-13,26.3345975 3.62406463,29.9748409 8.0945749,29.9748409 C12.5650852,29.9748409 16.1891498,26.3345975 16.1891498,21.8441296 C16.1891498,17.3536616 12.5650852,13.7134182 8.0945749,13.7134182 Z M8.0945749,15.8606131 C11.3844927,15.8606131 14.051498,18.5395247 14.051498,21.8441296 C14.051498,25.1487345 11.3844927,27.827646 8.0945749,27.827646 C4.80465713,27.827646 2.13765182,25.1487345 2.13765182,21.8441296 C2.13765182,18.5395247 4.80465713,15.8606131 8.0945749,15.8606131 Z" id="Oval" fill="#052F43"></path>
            <ellipse id="Oval" fill="#768D98" cx="8.0945749" cy="21.8441296" rx="4.04728745" ry="4.0653557"></ellipse>
            <path d="M16.0038866,3.73034936e-13 C11.5333764,3.73034936e-13 7.90931174,3.64024349 7.90931174,8.13071139 C7.90931174,12.6211793 11.5333764,16.2614228 16.0038866,16.2614228 C20.4743969,16.2614228 24.0984615,12.6211793 24.0984615,8.13071139 C24.0984615,3.64024349 20.4743969,3.73034936e-13 16.0038866,3.73034936e-13 Z M16.0038866,2.14719491 C19.2938044,2.14719491 21.9608097,4.82610649 21.9608097,8.13071139 C21.9608097,11.4353163 19.2938044,14.1142279 16.0038866,14.1142279 C12.7139689,14.1142279 10.0469636,11.4353163 10.0469636,8.13071139 C10.0469636,4.82610649 12.7139689,2.14719491 16.0038866,2.14719491 Z" id="Oval" fill="#052F43"></path>
            <ellipse id="Oval" fill="#768D98" cx="16.0038866" cy="8.13071139" rx="4.04728745" ry="4.0653557"></ellipse>
            <path d="M23.9559514,13.7134182 C19.4854411,13.7134182 15.8613765,17.3536616 15.8613765,21.8441296 C15.8613765,26.3345975 19.4854411,29.9748409 23.9559514,29.9748409 C28.4264617,29.9748409 32.0505263,26.3345975 32.0505263,21.8441296 C32.0505263,17.3536616 28.4264617,13.7134182 23.9559514,13.7134182 Z M23.9559514,15.8606131 C27.2458692,15.8606131 29.9128745,18.5395247 29.9128745,21.8441296 C29.9128745,25.1487345 27.2458692,27.827646 23.9559514,27.827646 C20.6660336,27.827646 17.9990283,25.1487345 17.9990283,21.8441296 C17.9990283,18.5395247 20.6660336,15.8606131 23.9559514,15.8606131 Z" id="Oval" fill="#052F43"></path>
            <ellipse id="Oval" fill="#768D98" cx="23.9559514" cy="21.8441296" rx="4.04728745" ry="4.0653557"></ellipse>
            <ellipse id="Oval" fill="#768D98" cx="12.1703644" cy="15.0017351" rx="1.72437247" ry="1.73207056"></ellipse>
            <ellipse id="Oval" fill="#768D98" cx="16.0608907" cy="21.9586466" rx="1.72437247" ry="1.73207056"></ellipse>
            <ellipse id="Oval" fill="#768D98" cx="20.1936842" cy="14.9015327" rx="1.72437247" ry="1.73207056"></ellipse>
        </g>
    </g>
</svg>