<?xml version="1.0" encoding="UTF-8"?>
<svg width="32px" height="32px" viewBox="0 0 32 32" version="1.1" xmlns="http://www.w3.org/2000/svg" xmlns:xlink="http://www.w3.org/1999/xlink">
    <!-- Generator: Sketch 63.1 (92452) - https://sketch.com -->
    <title>icons/organism</title>
    <desc>Created with Sketch.</desc>
    <g id="icons/organism" stroke="none" stroke-width="1" fill="none" fill-rule="evenodd">
        <g id="Group" transform="translate(0.000000, 4.000000)" fill-rule="nonzero">
            <path d="M4.29695941,1.15463195e-14 C1.92381426,1.15463195e-14 2.49869569e-13,1.83502283 2.49869569e-13,4.0986382 C2.49869569e-13,6.36225358 1.92381426,8.19727641 4.29695941,8.19727641 C6.67010456,8.19727641 8.59391881,6.36225358 8.59391881,4.0986382 C8.59391881,1.83502283 6.67010456,1.15463195e-14 4.29695941,1.15463195e-14 Z M4.29695941,1.29554656 C5.91997247,1.29554656 7.23568452,2.55053344 7.23568452,4.0986382 C7.23568452,5.64674297 5.91997247,6.90172985 4.29695941,6.90172985 C2.67394634,6.90172985 1.3582343,5.64674297 1.3582343,4.0986382 C1.3582343,2.55053344 2.67394634,1.29554656 4.29695941,1.29554656 Z" id="Oval" fill="#052F43"></path>
            <ellipse id="Oval" fill="#768D98" cx="4.29695941" cy="4.0986382" rx="2.08674178" ry="1.99043062"></ellipse>
            <path d="M12.0635901,1.15463195e-14 C9.69044491,1.15463195e-14 7.76663065,1.83502283 7.76663065,4.0986382 C7.76663065,6.36225358 9.69044491,8.19727641 12.0635901,8.19727641 C14.4367352,8.19727641 16.3605495,6.36225358 16.3605495,4.0986382 C16.3605495,1.83502283 14.4367352,1.15463195e-14 12.0635901,1.15463195e-14 Z M12.0635901,1.29554656 C13.6866031,1.29554656 15.0023152,2.55053344 15.0023152,4.0986382 C15.0023152,5.64674297 13.6866031,6.90172985 12.0635901,6.90172985 C10.440577,6.90172985 9.12486495,5.64674297 9.12486495,4.0986382 C9.12486495,2.55053344 10.440577,1.29554656 12.0635901,1.29554656 Z" id="Oval" fill="#052F43"></path>
            <ellipse id="Oval" fill="#768D98" cx="12.0635901" cy="4.0986382" rx="2.08674178" ry="1.99043062"></ellipse>
            <path d="M19.8425683,1.15463195e-14 C17.4694231,1.15463195e-14 15.5456089,1.83502283 15.5456089,4.0986382 C15.5456089,6.36225358 17.4694231,8.19727641 19.8425683,8.19727641 C22.2157134,8.19727641 24.1395277,6.36225358 24.1395277,4.0986382 C24.1395277,1.83502283 22.2157134,1.15463195e-14 19.8425683,1.15463195e-14 Z M19.8425683,1.29554656 C21.4655814,1.29554656 22.7812934,2.55053344 22.7812934,4.0986382 C22.7812934,5.64674297 21.4655814,6.90172985 19.8425683,6.90172985 C18.2195552,6.90172985 16.9038432,5.64674297 16.9038432,4.0986382 C16.9038432,2.55053344 18.2195552,1.29554656 19.8425683,1.29554656 Z" id="Oval" fill="#052F43"></path>
            <ellipse id="Oval" fill="#768D98" cx="19.8425683" cy="4.0986382" rx="2.08674178" ry="1.99043062"></ellipse>
            <path d="M27.7079796,1.15463195e-14 C25.3348345,1.15463195e-14 23.4110202,1.83502283 23.4110202,4.0986382 C23.4110202,6.36225358 25.3348345,8.19727641 27.7079796,8.19727641 C30.0811248,8.19727641 32.004939,6.36225358 32.004939,4.0986382 C32.004939,1.83502283 30.0811248,1.15463195e-14 27.7079796,1.15463195e-14 Z M27.7079796,1.29554656 C29.3309927,1.29554656 30.6467047,2.55053344 30.6467047,4.0986382 C30.6467047,5.64674297 29.3309927,6.90172985 27.7079796,6.90172985 C26.0849666,6.90172985 24.7692545,5.64674297 24.7692545,4.0986382 C24.7692545,2.55053344 26.0849666,1.29554656 27.7079796,1.29554656 Z" id="Oval" fill="#052F43"></path>
            <ellipse id="Oval" fill="#768D98" cx="27.7079796" cy="4.0986382" rx="2.08674178" ry="1.99043062"></ellipse>
            <path d="M4.29695941,7.41994847 C1.92381426,7.41994847 2.49869569e-13,9.2549713 2.49869569e-13,11.5185867 C2.49869569e-13,13.7822021 1.92381426,15.6172249 4.29695941,15.6172249 C6.67010456,15.6172249 8.59391881,13.7822021 8.59391881,11.5185867 C8.59391881,9.2549713 6.67010456,7.41994847 4.29695941,7.41994847 Z M4.29695941,8.71549503 C5.91997247,8.71549503 7.23568452,9.97048191 7.23568452,11.5185867 C7.23568452,13.0666914 5.91997247,14.3216783 4.29695941,14.3216783 C2.67394634,14.3216783 1.3582343,13.0666914 1.3582343,11.5185867 C1.3582343,9.97048191 2.67394634,8.71549503 4.29695941,8.71549503 Z" id="Oval" fill="#052F43"></path>
            <ellipse id="Oval" fill="#768D98" cx="4.29695941" cy="11.5185867" rx="2.08674178" ry="1.99043062"></ellipse>
            <path d="M12.0635901,7.41994847 C9.69044491,7.41994847 7.76663065,9.2549713 7.76663065,11.5185867 C7.76663065,13.7822021 9.69044491,15.6172249 12.0635901,15.6172249 C14.4367352,15.6172249 16.3605495,13.7822021 16.3605495,11.5185867 C16.3605495,9.2549713 14.4367352,7.41994847 12.0635901,7.41994847 Z M12.0635901,8.71549503 C13.6866031,8.71549503 15.0023152,9.97048191 15.0023152,11.5185867 C15.0023152,13.0666914 13.6866031,14.3216783 12.0635901,14.3216783 C10.440577,14.3216783 9.12486495,13.0666914 9.12486495,11.5185867 C9.12486495,9.97048191 10.440577,8.71549503 12.0635901,8.71549503 Z" id="Oval" fill="#052F43"></path>
            <ellipse id="Oval" fill="#768D98" cx="12.0635901" cy="11.5185867" rx="2.08674178" ry="1.99043062"></ellipse>
            <path d="M19.8425683,7.41994847 C17.4694231,7.41994847 15.5456089,9.2549713 15.5456089,11.5185867 C15.5456089,13.7822021 17.4694231,15.6172249 19.8425683,15.6172249 C22.2157134,15.6172249 24.1395277,13.7822021 24.1395277,11.5185867 C24.1395277,9.2549713 22.2157134,7.41994847 19.8425683,7.41994847 Z M19.8425683,8.71549503 C21.4655814,8.71549503 22.7812934,9.97048191 22.7812934,11.5185867 C22.7812934,13.0666914 21.4655814,14.3216783 19.8425683,14.3216783 C18.2195552,14.3216783 16.9038432,13.0666914 16.9038432,11.5185867 C16.9038432,9.97048191 18.2195552,8.71549503 19.8425683,8.71549503 Z" id="Oval" fill="#052F43"></path>
            <ellipse id="Oval" fill="#768D98" cx="19.8425683" cy="11.5185867" rx="2.08674178" ry="1.99043062"></ellipse>
            <path d="M27.7079796,7.41994847 C25.3348345,7.41994847 23.4110202,9.2549713 23.4110202,11.5185867 C23.4110202,13.7822021 25.3348345,15.6172249 27.7079796,15.6172249 C30.0811248,15.6172249 32.004939,13.7822021 32.004939,11.5185867 C32.004939,9.2549713 30.0811248,7.41994847 27.7079796,7.41994847 Z M27.7079796,8.71549503 C29.3309927,8.71549503 30.6467047,9.97048191 30.6467047,11.5185867 C30.6467047,13.0666914 29.3309927,14.3216783 27.7079796,14.3216783 C26.0849666,14.3216783 24.7692545,13.0666914 24.7692545,11.5185867 C24.7692545,9.97048191 26.0849666,8.71549503 27.7079796,8.71549503 Z" id="Oval" fill="#052F43"></path>
            <ellipse id="Oval" fill="#768D98" cx="27.7079796" cy="11.5185867" rx="2.08674178" ry="1.99043062"></ellipse>
            <path d="M4.29695941,14.8281192 C1.92381426,14.8281192 2.49869569e-13,16.6631421 2.49869569e-13,18.9267575 C2.49869569e-13,21.1903728 1.92381426,23.0253957 4.29695941,23.0253957 C6.67010456,23.0253957 8.59391881,21.1903728 8.59391881,18.9267575 C8.59391881,16.6631421 6.67010456,14.8281192 4.29695941,14.8281192 Z M4.29695941,16.1236658 C5.91997247,16.1236658 7.23568452,17.3786527 7.23568452,18.9267575 C7.23568452,20.4748622 5.91997247,21.7298491 4.29695941,21.7298491 C2.67394634,21.7298491 1.3582343,20.4748622 1.3582343,18.9267575 C1.3582343,17.3786527 2.67394634,16.1236658 4.29695941,16.1236658 Z" id="Oval" fill="#052F43"></path>
            <ellipse id="Oval" fill="#768D98" cx="4.29695941" cy="18.9267575" rx="2.08674178" ry="1.99043062"></ellipse>
            <path d="M12.0635901,14.8281192 C9.69044491,14.8281192 7.76663065,16.6631421 7.76663065,18.9267575 C7.76663065,21.1903728 9.69044491,23.0253957 12.0635901,23.0253957 C14.4367352,23.0253957 16.3605495,21.1903728 16.3605495,18.9267575 C16.3605495,16.6631421 14.4367352,14.8281192 12.0635901,14.8281192 Z M12.0635901,16.1236658 C13.6866031,16.1236658 15.0023152,17.3786527 15.0023152,18.9267575 C15.0023152,20.4748622 13.6866031,21.7298491 12.0635901,21.7298491 C10.440577,21.7298491 9.12486495,20.4748622 9.12486495,18.9267575 C9.12486495,17.3786527 10.440577,16.1236658 12.0635901,16.1236658 Z" id="Oval" fill="#052F43"></path>
            <ellipse id="Oval" fill="#768D98" cx="12.0635901" cy="18.9267575" rx="2.08674178" ry="1.99043062"></ellipse>
            <path d="M19.8425683,14.8281192 C17.4694231,14.8281192 15.5456089,16.6631421 15.5456089,18.9267575 C15.5456089,21.1903728 17.4694231,23.0253957 19.8425683,23.0253957 C22.2157134,23.0253957 24.1395277,21.1903728 24.1395277,18.9267575 C24.1395277,16.6631421 22.2157134,14.8281192 19.8425683,14.8281192 Z M19.8425683,16.1236658 C21.4655814,16.1236658 22.7812934,17.3786527 22.7812934,18.9267575 C22.7812934,20.4748622 21.4655814,21.7298491 19.8425683,21.7298491 C18.2195552,21.7298491 16.9038432,20.4748622 16.9038432,18.9267575 C16.9038432,17.3786527 18.2195552,16.1236658 19.8425683,16.1236658 Z" id="Oval" fill="#052F43"></path>
            <ellipse id="Oval" fill="#768D98" cx="19.8425683" cy="18.9267575" rx="2.08674178" ry="1.99043062"></ellipse>
            <path d="M27.7079796,14.8281192 C25.3348345,14.8281192 23.4110202,16.6631421 23.4110202,18.9267575 C23.4110202,21.1903728 25.3348345,23.0253957 27.7079796,23.0253957 C30.0811248,23.0253957 32.004939,21.1903728 32.004939,18.9267575 C32.004939,16.6631421 30.0811248,14.8281192 27.7079796,14.8281192 Z M27.7079796,16.1236658 C29.3309927,16.1236658 30.6467047,17.3786527 30.6467047,18.9267575 C30.6467047,20.4748622 29.3309927,21.7298491 27.7079796,21.7298491 C26.0849666,21.7298491 24.7692545,20.4748622 24.7692545,18.9267575 C24.7692545,17.3786527 26.0849666,16.1236658 27.7079796,16.1236658 Z" id="Oval" fill="#052F43"></path>
            <ellipse id="Oval" fill="#768D98" cx="27.7079796" cy="18.9267575" rx="2.08674178" ry="1.99043062"></ellipse>
            <ellipse id="Oval" fill="#768D98" cx="8.13705819" cy="4.0986382" rx="1.00015434" ry="1"></ellipse>
            <ellipse id="Oval" fill="#768D98" cx="4.29695941" cy="7.82039014" rx="1.00015434" ry="1"></ellipse>
            <ellipse id="Oval" fill="#768D98" cx="12.2488038" cy="7.82039014" rx="1.00015434" ry="1"></ellipse>
            <ellipse id="Oval" fill="#768D98" cx="19.9290014" cy="7.82039014" rx="1.00015434" ry="1"></ellipse>
            <ellipse id="Oval" fill="#768D98" cx="27.7079796" cy="7.82039014" rx="1.00015434" ry="1"></ellipse>
            <ellipse id="Oval" fill="#768D98" cx="4.29695941" cy="15.2285609" rx="1.00015434" ry="1"></ellipse>
            <ellipse id="Oval" fill="#768D98" cx="12.2488038" cy="15.2285609" rx="1.00015434" ry="1"></ellipse>
            <ellipse id="Oval" fill="#768D98" cx="19.9290014" cy="15.2285609" rx="1.00015434" ry="1"></ellipse>
            <ellipse id="Oval" fill="#768D98" cx="27.7079796" cy="15.2285609" rx="1.00015434" ry="1"></ellipse>
            <ellipse id="Oval" fill="#768D98" cx="15.9036888" cy="4.0986382" rx="1.00015434" ry="1"></ellipse>
            <ellipse id="Oval" fill="#768D98" cx="23.7691002" cy="4.0986382" rx="1.00015434" ry="1"></ellipse>
            <ellipse id="Oval" fill="#768D98" cx="8.13705819" cy="11.3419212" rx="1.00015434" ry="1"></ellipse>
            <ellipse id="Oval" fill="#768D98" cx="15.9036888" cy="11.3419212" rx="1.00015434" ry="1"></ellipse>
            <ellipse id="Oval" fill="#768D98" cx="23.7691002" cy="11.3419212" rx="1.00015434" ry="1"></ellipse>
            <ellipse id="Oval" fill="#768D98" cx="8.13705819" cy="18.750092" rx="1.00015434" ry="1"></ellipse>
            <ellipse id="Oval" fill="#768D98" cx="15.9036888" cy="18.750092" rx="1.00015434" ry="1"></ellipse>
            <ellipse id="Oval" fill="#768D98" cx="23.7691002" cy="18.750092" rx="1.00015434" ry="1"></ellipse>
        </g>
    </g>
</svg>