<?xml version="1.0" encoding="UTF-8"?>
<svg width="25px" height="31px" viewBox="0 0 25 31" version="1.1" xmlns="http://www.w3.org/2000/svg" xmlns:xlink="http://www.w3.org/1999/xlink">
    <!-- Generator: Sketch 64 (93537) - https://sketch.com -->
    <title>templates</title>
    <desc>Created with Sketch.</desc>
    <g id="Page-1" stroke="none" stroke-width="1" fill="none" fill-rule="evenodd">
        <g id="templates" fill="#052F43" fill-rule="nonzero">
            <polygon id="Path" points="24.9865462 0.536592963 24.9865462 1.83712239 23.8205543 1.83712239 23.82 1.702 23.6860168 1.70258486 23.6860168 0.536592963"></polygon>
            <path d="M22.2987854,0.536592963 L20.7996307,0.536592963 L20.7996307,1.70258486 L22.2987854,1.70258486 L22.2987854,0.536592963 Z M19.300476,0.536592963 L17.8013213,0.536592963 L17.8013213,1.70258486 L19.300476,1.70258486 L19.300476,0.536592963 Z M16.3021667,0.536592963 L14.803012,0.536592963 L14.803012,1.70258486 L16.3021667,1.70258486 L16.3021667,0.536592963 Z M13.3038573,0.536592963 L11.8047026,0.536592963 L11.8047026,1.70258486 L13.3038573,1.70258486 L13.3038573,0.536592963 Z M10.3055479,0.536592963 L8.80639322,0.536592963 L8.80639322,1.70258486 L10.3055479,1.70258486 L10.3055479,0.536592963 Z M7.30723853,0.536592963 L6.39345998,0.536592963 L6.39345998,1.70258486 L7.30723853,1.70258486 L7.30723853,0.536592963 Z" id="Path"></path>
            <polygon id="Path" points="5.69984429 0.536592963 5.69984429 1.70258486 5.565 1.702 5.56530676 1.83712239 4.39931486 1.83712239 4.39931486 0.536592963"></polygon>
            <polygon id="Path" points="4.39931486 2.60249144 4.39931486 3.60249144 5.56530676 3.60249144 5.56530676 2.60249144"></polygon>
            <polygon id="Path" points="5.56530676 4.12127063 5.565 4.255 5.69984429 4.25580816 5.69984429 5.42180006 4.39931486 5.42180006 4.39931486 4.12127063"></polygon>
            <path d="M7.26645905,5.42180006 L8.9642728,5.42180006 L8.9642728,4.25580816 L7.26645905,4.25580816 L7.26645905,5.42180006 Z M10.6620865,5.42180006 L12.3599003,5.42180006 L12.3599003,4.25580816 L10.6620865,4.25580816 L10.6620865,5.42180006 Z M14.057714,5.42180006 L15.7555278,5.42180006 L15.7555278,4.25580816 L14.057714,4.25580816 L14.057714,5.42180006 Z M17.4533415,5.42180006 L19.0220492,5.42180006 L19.0220492,4.25580816 L17.4533415,4.25580816 L17.4533415,5.42180006 Z" id="Path"></path>
            <polygon id="Path" points="21.0999066 4.25580816 21.0999066 5.55633759 19.9339146 5.55633759 19.933 5.421 19.7993771 5.42180006 19.7993771 4.25580816"></polygon>
            <path d="M19.9339146,6.9196512 L19.9339146,8.3942812 L21.0999066,8.3942812 L21.0999066,6.9196512 L19.9339146,6.9196512 Z M19.9339146,9.8689112 L19.9339146,11.3435412 L21.0999066,11.3435412 L21.0999066,9.8689112 L19.9339146,9.8689112 Z M19.9339146,12.8181712 L19.9339146,14.2928012 L21.0999066,14.2928012 L21.0999066,12.8181712 L19.9339146,12.8181712 Z M19.9339146,15.7674312 L19.9339146,17.2420612 L21.0999066,17.2420612 L21.0999066,15.7674312 L19.9339146,15.7674312 Z M19.9339146,18.7166912 L19.9339146,20.1913212 L21.0999066,20.1913212 L21.0999066,18.7166912 L19.9339146,18.7166912 Z M19.9339146,21.6659512 L19.9339146,23.1405812 L21.0999066,23.1405812 L21.0999066,21.6659512 L19.9339146,21.6659512 Z M19.9339146,24.6152112 L19.9339146,25.3004671 L21.0999066,25.3004671 L21.0999066,24.6152112 L19.9339146,24.6152112 Z" id="Path"></path>
            <polygon id="Path" points="21.0999066 25.9821239 21.099 26.116 21.2344441 26.1166614 21.2344441 27.2826534 19.9339146 27.2826534 19.9339146 25.9821239"></polygon>
            <polygon id="Path" points="22.0596076 27.2826534 23.0596076 27.2826534 23.0596076 26.1166614 22.0596076 26.1166614"></polygon>
            <polygon id="Path" points="24.9865462 26.1017129 24.9865462 27.2826534 23.8056057 27.2826534 23.8056057 26.1166614 23.82 26.116 23.8205543 26.1017129"></polygon>
            <path d="M24.9865462,24.5590159 L24.9865462,23.0206191 L23.8205543,23.0206191 L23.8205543,24.5590159 L24.9865462,24.5590159 Z M24.9865462,21.4822222 L24.9865462,19.9438254 L23.8205543,19.9438254 L23.8205543,21.4822222 L24.9865462,21.4822222 Z M24.9865462,18.4054286 L24.9865462,16.8670317 L23.8205543,16.8670317 L23.8205543,18.4054286 L24.9865462,18.4054286 Z M24.9865462,15.3286349 L24.9865462,13.7902381 L23.8205543,13.7902381 L23.8205543,15.3286349 L24.9865462,15.3286349 Z M24.9865462,12.2518412 L24.9865462,10.7134444 L23.8205543,10.7134444 L23.8205543,12.2518412 L24.9865462,12.2518412 Z M24.9865462,9.17504755 L24.9865462,7.63665071 L23.8205543,7.63665071 L23.8205543,9.17504755 L24.9865462,9.17504755 Z M24.9865462,6.09825388 L24.9865462,4.55985704 L23.8205543,4.55985704 L23.8205543,6.09825388 L24.9865462,6.09825388 Z M24.9865462,3.02146021 L24.9865462,2.54269698 L23.8205543,2.54269698 L23.8205543,3.02146021 L24.9865462,3.02146021 Z" id="Path"></path>
            <polygon id="Path" points="5.56530676 4.25580816 5.56530676 5.35303644 4.982 5.353 4.98231081 5.42180006 4.26477733 5.42180006 4.26477733 4.25580816"></polygon>
            <polygon id="Path" points="3.45157272 4.25580816 2.45157272 4.25580816 2.45157272 5.42180006 3.45157272 5.42180006"></polygon>
            <polygon id="Path" points="1.81320461 4.25580816 1.81320461 5.42180006 1.678 5.421 1.67866708 5.55633759 0.51267518 5.55633759 0.51267518 4.25580816"></polygon>
            <path d="M0.51267518,6.97944566 L0.51267518,8.51785549 L1.67866708,8.51785549 L1.67866708,6.97944566 L0.51267518,6.97944566 Z M0.51267518,10.0562653 L0.51267518,11.5946751 L1.67866708,11.5946751 L1.67866708,10.0562653 L0.51267518,10.0562653 Z M0.51267518,13.133085 L0.51267518,14.6714948 L1.67866708,14.6714948 L1.67866708,13.133085 L0.51267518,13.133085 Z M0.51267518,16.2099046 L0.51267518,17.7483145 L1.67866708,17.7483145 L1.67866708,16.2099046 L0.51267518,16.2099046 Z M0.51267518,19.2867243 L0.51267518,20.8251341 L1.67866708,20.8251341 L1.67866708,19.2867243 L0.51267518,19.2867243 Z M0.51267518,22.363544 L0.51267518,23.9019538 L1.67866708,23.9019538 L1.67866708,22.363544 L0.51267518,22.363544 Z M0.51267518,25.4403636 L0.51267518,26.9787734 L1.67866708,26.9787734 L1.67866708,25.4403636 L0.51267518,25.4403636 Z M0.51267518,28.5171833 L0.51267518,28.9957646 L1.67866708,28.9957646 L1.67866708,28.5171833 L0.51267518,28.5171833 Z" id="Path"></path>
            <polygon id="Path" points="1.67866708 29.7013391 1.678 29.835 1.81320461 29.8358766 1.81320461 31.0018686 0.51267518 31.0018686 0.51267518 29.7013391"></polygon>
            <path d="M3.200436,31.0018686 L4.69959069,31.0018686 L4.69959069,29.8358766 L3.200436,29.8358766 L3.200436,31.0018686 Z M6.19874537,31.0018686 L7.69790006,31.0018686 L7.69790006,29.8358766 L6.19874537,29.8358766 L6.19874537,31.0018686 Z M9.19705475,31.0018686 L10.6962094,31.0018686 L10.6962094,29.8358766 L9.19705475,29.8358766 L9.19705475,31.0018686 Z M12.1953641,31.0018686 L13.6945188,31.0018686 L13.6945188,29.8358766 L12.1953641,29.8358766 L12.1953641,31.0018686 Z M15.1936735,31.0018686 L16.6928282,31.0018686 L16.6928282,29.8358766 L15.1936735,29.8358766 L15.1936735,31.0018686 Z M18.1919829,31.0018686 L19.1057614,31.0018686 L19.1057614,29.8358766 L18.1919829,29.8358766 L18.1919829,31.0018686 Z" id="Path"></path>
            <polygon id="Path" points="21.0999066 29.7013391 21.0999066 31.0018686 19.7993771 31.0018686 19.7993771 29.8358766 19.933 29.835 19.9339146 29.7013391"></polygon>
            <polygon id="Path" points="21.0999066 28.9359701 21.0999066 27.9359701 19.9339146 27.9359701 19.9339146 28.9359701"></polygon>
            <polygon id="Path" points="21.0999066 26.1166614 21.0999066 27.4171909 19.9339146 27.4171909 19.9339146 26.6996574 20.11 26.699 20.1103083 26.1166614"></polygon>
        </g>
    </g>
</svg>